<svg width="1336" height="178" viewBox="0 0 1336 178" fill="none" xmlns="http://www.w3.org/2000/svg">
<path d="M0 68.5L45.5 46.1087V26.5L55.5 20L61 0H76.5L83.5 20L94 26.5V70.5H119V48.0217L163.5 60.9348V79.1087L202.5 70.5V60.9348L224.5 69.0652L238.5 73.3696V87.5L244 82.4565H252L259 87.5V97L301.5 89.1522V82.4565L329.5 75.2826V82.4565L357.5 89.1522V100.152H387.5L412.5 89.1522V95.3696H440.5V82.4565L470 95.3696V106.37H494.5L518.5 97.7609V111.152L522 93L525.5 94.5L530 80.5L534.5 94.5L539 93L542.5 111.152L546 102.5H560L564 111.152V116.891L585 105.5L591.5 113.543H605.5V116.891L624 123.587V115.457L645.5 110.196V119.283L665.5 108.5V113.543L686.5 121.674V115.457L706.5 113.543V116.891L717 113.835L728 117.182L729 123.587L750 116.891V121.674L771 129.326V121.674H780L792.5 119.283V113.543L815.5 106.37V99.1956L823.5 90H834.5L842 99.1956V111.152L866.5 116.891V107.804L890.5 99.1956V91.0652H919V80.0652L949.5 91.0652V80.0652L968 70.9783H981.5V56L1020 65.5L1058.5 48.9783V61.413L1101 68.587V61.413H1143.5V80.0652L1184.5 61.413V83.8913H1216.5V47.0652H1259.5V65.2391L1297 80.0652V52.5L1336 21.5V150.637L1297 152.928L1259.5 155.131L1184.5 159.248L1143.5 161.394L1101 163.597L1058.5 165.588L1020 167.367L981.5 169.125L949.5 170.5L919 171.691L890.5 172.775L866.5 173.578L842 174.5L815.5 175.251L792.5 176L771 176.5L750 177L729 177.5L706.5 178H686.5H665.5H645.5L624 177.684L605.5 177.5H586L564 177H542.5L518.5 176.5L494.5 176L470 175.5L440.5 175L412.5 174.5H387.5H357.5L329.5 173.197L301.5 172.203L259 169.415H238.5L202.5 167.552L183 166.5L163.5 165.5L119 162.449L45.5 156L0 150.355V68.5Z" fill="#292929"/>
<rect x="240.986" y="97" width="6" height="65" rx="1" fill="#A8893A"/>
<rect x="249.986" y="97" width="6" height="65" rx="1" fill="#A8893A"/>
<rect x="475.986" y="113" width="5.16923" height="56" rx="1" fill="#A8893A"/>
<rect x="483.74" y="113" width="5.16923" height="56" rx="1" fill="#A8893A"/>
<rect x="845" y="119" width="4.43077" height="48" rx="1" fill="#A8893A"/>
<rect x="851.646" y="119" width="4.43077" height="48" rx="1" fill="#A8893A"/>
<path d="M168 92C168 89.2386 170.239 87 173 87C175.761 87 178 89.2386 178 92V97H168V92Z" fill="#A8893A"/>
<path d="M168 112C168 109.239 170.239 107 173 107C175.761 107 178 109.239 178 112V117H168V112Z" fill="#444444"/>
<path d="M168 132C168 129.239 170.239 127 173 127C175.761 127 178 129.239 178 132V137H168V132Z" fill="#444444"/>
<path d="M168 152C168 149.239 170.239 147 173 147C175.761 147 178 149.239 178 152V157H168V152Z" fill="#ABA585"/>
<path d="M188 92C188 89.2386 190.239 87 193 87C195.761 87 198 89.2386 198 92V97H188V92Z" fill="#444444"/>
<path d="M188 112C188 109.239 190.239 107 193 107C195.761 107 198 109.239 198 112V117H188V112Z" fill="#A8893A"/>
<path d="M188 132C188 129.239 190.239 127 193 127C195.761 127 198 129.239 198 132V137H188V132Z" fill="#ABA585"/>
<path d="M188 152C188 149.239 190.239 147 193 147C195.761 147 198 149.239 198 152V157H188V152Z" fill="#A8893A"/>
<path d="M263 102.929C263 101.311 264.311 100 265.929 100C267.546 100 268.857 101.311 268.857 102.929V105.857H263V102.929Z" fill="#A8893A"/>
<path d="M263 114.643C263 113.026 264.311 111.714 265.929 111.714C267.546 111.714 268.857 113.026 268.857 114.643V117.571H263V114.643Z" fill="#444444"/>
<path d="M262.986 126.359C262.986 124.741 264.297 123.43 265.915 123.43C267.532 123.43 268.843 124.741 268.843 126.359V129.287H262.986V126.359Z" fill="#444444"/>
<path d="M263 138.072C263 136.454 264.311 135.143 265.929 135.143C267.546 135.143 268.857 136.454 268.857 138.072V141H263V138.072Z" fill="#ABA585"/>
<path d="M273.714 102.929C273.714 101.311 275.025 100 276.642 100C278.26 100 279.571 101.311 279.571 102.929V105.857H273.714V102.929Z" fill="#444444"/>
<path d="M273.714 114.643C273.714 113.026 275.025 111.714 276.642 111.714C278.26 111.714 279.571 113.026 279.571 114.643V117.571H273.714V114.643Z" fill="#A8893A"/>
<path d="M273.714 126.357C273.714 124.74 275.025 123.429 276.642 123.429C278.26 123.429 279.571 124.74 279.571 126.357V129.286H273.714V126.357Z" fill="#ABA585"/>
<path d="M273.714 138.072C273.714 136.454 275.025 135.143 276.642 135.143C278.26 135.143 279.571 136.454 279.571 138.072V141H273.714V138.072Z" fill="#A8893A"/>
<path d="M273.71 149.929C273.71 148.311 275.021 147 276.639 147C278.256 147 279.567 148.311 279.567 149.929V152.857H273.71V149.929Z" fill="#A8893A"/>
<path d="M283 149.929C283 148.311 284.311 147 285.929 147C287.546 147 288.857 148.311 288.857 149.929V152.857H283V149.929Z" fill="#A8893A"/>
<path d="M293.687 149.93C293.687 148.312 294.998 147 296.617 147C298.235 147 299.547 148.312 299.547 149.93V152.86H293.687V149.93Z" fill="#A8893A"/>
<path d="M263 149.929C263 148.311 264.311 147 265.929 147C267.546 147 268.857 148.311 268.857 149.929V152.857H263V149.929Z" fill="#A8893A"/>
<path d="M283 102.929C283 101.311 284.311 100 285.929 100C287.546 100 288.857 101.311 288.857 102.929V105.857H283V102.929Z" fill="#A8893A"/>
<path d="M283 114.643C283 113.026 284.311 111.714 285.929 111.714C287.546 111.714 288.857 113.026 288.857 114.643V117.571H283V114.643Z" fill="#444444"/>
<path d="M283 126.357C283 124.74 284.311 123.429 285.929 123.429C287.546 123.429 288.857 124.74 288.857 126.357V129.286H283V126.357Z" fill="#444444"/>
<path d="M283 138.072C283 136.454 284.311 135.143 285.929 135.143C287.546 135.143 288.857 136.454 288.857 138.072V141H283V138.072Z" fill="#ABA585"/>
<path d="M293.714 102.929C293.714 101.311 295.025 100 296.642 100C298.26 100 299.571 101.311 299.571 102.929V105.857H293.714V102.929Z" fill="#444444"/>
<path d="M293.714 114.643C293.714 113.026 295.025 111.714 296.642 111.714C298.26 111.714 299.571 113.026 299.571 114.643V117.571H293.714V114.643Z" fill="#A8893A"/>
<path d="M293.714 126.357C293.714 124.74 295.025 123.429 296.642 123.429C298.26 123.429 299.571 124.74 299.571 126.357V129.286H293.714V126.357Z" fill="#ABA585"/>
<path d="M293.714 138.072C293.714 136.454 295.025 135.143 296.642 135.143C298.26 135.143 299.571 136.454 299.571 138.072V141H293.714V138.072Z" fill="#A8893A"/>
<path d="M647 144.429C647 143.087 648.087 142 649.429 142C650.77 142 651.857 143.087 651.857 144.429V146.857H647V144.429Z" fill="#A8893A"/>
<path d="M647 135.429C647 134.087 648.087 133 649.429 133C650.77 133 651.857 134.087 651.857 135.429V137.857H647V135.429Z" fill="#444444"/>
<path d="M647 126.429C647 125.087 648.087 124 649.429 124C650.77 124 651.857 125.087 651.857 126.429V128.857H647V126.429Z" fill="#444444"/>
<path d="M647 154.143C647 152.802 648.087 151.714 649.429 151.714C650.77 151.714 651.857 152.802 651.857 154.143V156.571H647V154.143Z" fill="#444444"/>
<path d="M647 163.857C647 162.516 648.087 161.429 649.429 161.429C650.77 161.429 651.857 162.516 651.857 163.857V166.286H647V163.857Z" fill="#444444"/>
<path d="M647 173.572C647 172.23 648.087 171.143 649.429 171.143C650.77 171.143 651.857 172.23 651.857 173.572V176H647V173.572Z" fill="#ABA585"/>
<path d="M656.714 144.429C656.714 143.087 657.801 142 659.142 142C660.484 142 661.571 143.087 661.571 144.429V146.857H656.714V144.429Z" fill="#A8893A"/>
<path d="M656.714 135.429C656.714 134.087 657.801 133 659.142 133C660.484 133 661.571 134.087 661.571 135.429V137.857H656.714V135.429Z" fill="#ABA585"/>
<path d="M656.714 126.429C656.714 125.087 657.801 124 659.142 124C660.484 124 661.571 125.087 661.571 126.429V128.857H656.714V126.429Z" fill="#444444"/>
<path d="M656.714 154.143C656.714 152.802 657.801 151.714 659.142 151.714C660.484 151.714 661.571 152.802 661.571 154.143V156.571H656.714V154.143Z" fill="#ABA585"/>
<path d="M656.714 163.857C656.714 162.516 657.801 161.429 659.142 161.429C660.484 161.429 661.571 162.516 661.571 163.857V166.286H656.714V163.857Z" fill="#444444"/>
<path d="M656.714 173.572C656.714 172.23 657.801 171.143 659.142 171.143C660.484 171.143 661.571 172.23 661.571 173.572V176H656.714V173.572Z" fill="#A8893A"/>
<path d="M668 144.429C668 143.087 669.087 142 670.429 142C671.77 142 672.857 143.087 672.857 144.429V146.857H668V144.429Z" fill="#444444"/>
<path d="M668 135.429C668 134.087 669.087 133 670.429 133C671.77 133 672.857 134.087 672.857 135.429V137.857H668V135.429Z" fill="#A8893A"/>
<path d="M668 126.429C668 125.087 669.087 124 670.429 124C671.77 124 672.857 125.087 672.857 126.429V128.857H668V126.429Z" fill="#A8893A"/>
<path d="M668 154.143C668 152.802 669.087 151.714 670.429 151.714C671.77 151.714 672.857 152.802 672.857 154.143V156.571H668V154.143Z" fill="#444444"/>
<path d="M668 163.857C668 162.516 669.087 161.429 670.429 161.429C671.77 161.429 672.857 162.516 672.857 163.857V166.286H668V163.857Z" fill="#ABA585"/>
<path d="M668 173.572C668 172.23 669.087 171.143 670.429 171.143C671.77 171.143 672.857 172.23 672.857 173.572V176H668V173.572Z" fill="#444444"/>
<path d="M677.714 144.429C677.714 143.087 678.801 142 680.142 142C681.484 142 682.571 143.087 682.571 144.429V146.857H677.714V144.429Z" fill="#444444"/>
<path d="M677.714 135.429C677.714 134.087 678.801 133 680.142 133C681.484 133 682.571 134.087 682.571 135.429V137.857H677.714V135.429Z" fill="#ABA585"/>
<path d="M677.714 126.429C677.714 125.087 678.801 124 680.142 124C681.484 124 682.571 125.087 682.571 126.429V128.857H677.714V126.429Z" fill="#444444"/>
<path d="M677.714 154.143C677.714 152.802 678.801 151.714 680.142 151.714C681.484 151.714 682.571 152.802 682.571 154.143V156.571H677.714V154.143Z" fill="#A8893A"/>
<path d="M677.714 163.857C677.714 162.516 678.801 161.429 680.142 161.429C681.484 161.429 682.571 162.516 682.571 163.857V166.286H677.714V163.857Z" fill="#ABA585"/>
<path d="M677.714 173.572C677.714 172.23 678.801 171.143 680.142 171.143C681.484 171.143 682.571 172.23 682.571 173.572V176H677.714V173.572Z" fill="#444444"/>
<path d="M626 144.429C626 143.087 627.087 142 628.429 142C629.77 142 630.857 143.087 630.857 144.429V146.857H626V144.429Z" fill="#444444"/>
<path d="M626 135.429C626 134.087 627.087 133 628.429 133C629.77 133 630.857 134.087 630.857 135.429V137.857H626V135.429Z" fill="#A8893A"/>
<path d="M626 126.429C626 125.087 627.087 124 628.429 124C629.77 124 630.857 125.087 630.857 126.429V128.857H626V126.429Z" fill="#ABA585"/>
<path d="M626 154.143C626 152.802 627.087 151.714 628.429 151.714C629.77 151.714 630.857 152.802 630.857 154.143V156.571H626V154.143Z" fill="#444444"/>
<path d="M626 163.857C626 162.516 627.087 161.429 628.429 161.429C629.77 161.429 630.857 162.516 630.857 163.857V166.286H626V163.857Z" fill="#A8893A"/>
<path d="M626 173.572C626 172.23 627.087 171.143 628.429 171.143C629.77 171.143 630.857 172.23 630.857 173.572V176H626V173.572Z" fill="#A8893A"/>
<path d="M635.714 144.429C635.714 143.087 636.801 142 638.142 142C639.484 142 640.571 143.087 640.571 144.429V146.857H635.714V144.429Z" fill="#444444"/>
<path d="M635.714 135.429C635.714 134.087 636.801 133 638.142 133C639.484 133 640.571 134.087 640.571 135.429V137.857H635.714V135.429Z" fill="#444444"/>
<path d="M635.714 126.429C635.714 125.087 636.801 124 638.142 124C639.484 124 640.571 125.087 640.571 126.429V128.857H635.714V126.429Z" fill="#A8893A"/>
<path d="M636 117.429C636 116.087 637.087 115 638.429 115C639.77 115 640.857 116.087 640.857 117.429V119.857H636V117.429Z" fill="#A8893A"/>
<path d="M635.714 154.143C635.714 152.802 636.801 151.714 638.142 151.714C639.484 151.714 640.571 152.802 640.571 154.143V156.571H635.714V154.143Z" fill="#444444"/>
<path d="M635.714 163.857C635.714 162.516 636.801 161.429 638.142 161.429C639.484 161.429 640.571 162.516 640.571 163.857V166.286H635.714V163.857Z" fill="#ABA585"/>
<path d="M635.714 173.572C635.714 172.23 636.801 171.143 638.142 171.143C639.484 171.143 640.571 172.23 640.571 173.572V176H635.714V173.572Z" fill="#A8893A"/>
<path d="M688 144.429C688 143.087 689.087 142 690.429 142C691.77 142 692.857 143.087 692.857 144.429V146.857H688V144.429Z" fill="#ABA585"/>
<path d="M688 135.429C688 134.087 689.087 133 690.429 133C691.77 133 692.857 134.087 692.857 135.429V137.857H688V135.429Z" fill="#444444"/>
<path d="M688 126.429C688 125.087 689.087 124 690.429 124C691.77 124 692.857 125.087 692.857 126.429V128.857H688V126.429Z" fill="#ABA585"/>
<path d="M688 154.143C688 152.802 689.087 151.714 690.429 151.714C691.77 151.714 692.857 152.802 692.857 154.143V156.571H688V154.143Z" fill="#A8893A"/>
<path d="M688 163.857C688 162.516 689.087 161.429 690.429 161.429C691.77 161.429 692.857 162.516 692.857 163.857V166.286H688V163.857Z" fill="#444444"/>
<path d="M688 173.572C688 172.23 689.087 171.143 690.429 171.143C691.77 171.143 692.857 172.23 692.857 173.572V176H688V173.572Z" fill="#ABA585"/>
<path d="M697.714 144.429C697.714 143.087 698.801 142 700.142 142C701.484 142 702.571 143.087 702.571 144.429V146.857H697.714V144.429Z" fill="#A8893A"/>
<path d="M697.714 135.429C697.714 134.087 698.801 133 700.142 133C701.484 133 702.571 134.087 702.571 135.429V137.857H697.714V135.429Z" fill="#444444"/>
<path d="M697.714 126.429C697.714 125.087 698.801 124 700.142 124C701.484 124 702.571 125.087 702.571 126.429V128.857H697.714V126.429Z" fill="#ABA585"/>
<path d="M697.714 154.143C697.714 152.802 698.801 151.714 700.142 151.714C701.484 151.714 702.571 152.802 702.571 154.143V156.571H697.714V154.143Z" fill="#A8893A"/>
<path d="M697.714 163.857C697.714 162.516 698.801 161.429 700.142 161.429C701.484 161.429 702.571 162.516 702.571 163.857V166.286H697.714V163.857Z" fill="#A8893A"/>
<path d="M697.714 173.572C697.714 172.23 698.801 171.143 700.142 171.143C701.484 171.143 702.571 172.23 702.571 173.572V176H697.714V173.572Z" fill="#444444"/>
<path d="M710 144.429C710 143.087 711.087 142 712.429 142C713.77 142 714.857 143.087 714.857 144.429V146.857H710V144.429Z" fill="#ABA585"/>
<path d="M710 135.429C710 134.087 711.087 133 712.429 133C713.77 133 714.857 134.087 714.857 135.429V137.857H710V135.429Z" fill="#444444"/>
<path d="M710 126.429C710 125.087 711.087 124 712.429 124C713.77 124 714.857 125.087 714.857 126.429V128.857H710V126.429Z" fill="#ABA585"/>
<path d="M710 154.143C710 152.802 711.087 151.714 712.429 151.714C713.77 151.714 714.857 152.802 714.857 154.143V156.571H710V154.143Z" fill="#A8893A"/>
<path d="M710 163.857C710 162.516 711.087 161.429 712.429 161.429C713.77 161.429 714.857 162.516 714.857 163.857V166.286H710V163.857Z" fill="#444444"/>
<path d="M710 173.572C710 172.23 711.087 171.143 712.429 171.143C713.77 171.143 714.857 172.23 714.857 173.572V176H710V173.572Z" fill="#ABA585"/>
<path d="M719.714 144.429C719.714 143.087 720.801 142 722.142 142C723.484 142 724.571 143.087 724.571 144.429V146.857H719.714V144.429Z" fill="#A8893A"/>
<path d="M719.714 135.429C719.714 134.087 720.801 133 722.142 133C723.484 133 724.571 134.087 724.571 135.429V137.857H719.714V135.429Z" fill="#444444"/>
<path d="M719.714 126.429C719.714 125.087 720.801 124 722.142 124C723.484 124 724.571 125.087 724.571 126.429V128.857H719.714V126.429Z" fill="#ABA585"/>
<path d="M719.714 154.143C719.714 152.802 720.801 151.714 722.142 151.714C723.484 151.714 724.571 152.802 724.571 154.143V156.571H719.714V154.143Z" fill="#A8893A"/>
<path d="M719.714 163.857C719.714 162.516 720.801 161.429 722.142 161.429C723.484 161.429 724.571 162.516 724.571 163.857V166.286H719.714V163.857Z" fill="#A8893A"/>
<path d="M719.714 173.572C719.714 172.23 720.801 171.143 722.142 171.143C723.484 171.143 724.571 172.23 724.571 173.572V176H719.714V173.572Z" fill="#444444"/>
<path d="M731 144.429C731 143.087 732.087 142 733.429 142C734.77 142 735.857 143.087 735.857 144.429V146.857H731V144.429Z" fill="#ABA585"/>
<path d="M731 135.429C731 134.087 732.087 133 733.429 133C734.77 133 735.857 134.087 735.857 135.429V137.857H731V135.429Z" fill="#444444"/>
<path d="M731 154.143C731 152.802 732.087 151.714 733.429 151.714C734.77 151.714 735.857 152.802 735.857 154.143V156.571H731V154.143Z" fill="#A8893A"/>
<path d="M731 163.857C731 162.516 732.087 161.429 733.429 161.429C734.77 161.429 735.857 162.516 735.857 163.857V166.286H731V163.857Z" fill="#444444"/>
<path d="M731 173.572C731 172.23 732.087 171.143 733.429 171.143C734.77 171.143 735.857 172.23 735.857 173.572V176H731V173.572Z" fill="#ABA585"/>
<path d="M740.714 144.429C740.714 143.087 741.801 142 743.142 142C744.484 142 745.571 143.087 745.571 144.429V146.857H740.714V144.429Z" fill="#A8893A"/>
<path d="M740.714 135.429C740.714 134.087 741.801 133 743.142 133C744.484 133 745.571 134.087 745.571 135.429V137.857H740.714V135.429Z" fill="#444444"/>
<path d="M740.714 126.429C740.714 125.087 741.801 124 743.142 124C744.484 124 745.571 125.087 745.571 126.429V128.857H740.714V126.429Z" fill="#ABA585"/>
<path d="M740.714 154.143C740.714 152.802 741.801 151.714 743.142 151.714C744.484 151.714 745.571 152.802 745.571 154.143V156.571H740.714V154.143Z" fill="#A8893A"/>
<path d="M740.714 163.857C740.714 162.516 741.801 161.429 743.142 161.429C744.484 161.429 745.571 162.516 745.571 163.857V166.286H740.714V163.857Z" fill="#A8893A"/>
<path d="M740.714 173.572C740.714 172.23 741.801 171.143 743.142 171.143C744.484 171.143 745.571 172.23 745.571 173.572V176H740.714V173.572Z" fill="#444444"/>
<path d="M752 144.429C752 143.087 753.087 142 754.429 142C755.77 142 756.857 143.087 756.857 144.429V146.857H752V144.429Z" fill="#ABA585"/>
<path d="M752 135.429C752 134.087 753.087 133 754.429 133C755.77 133 756.857 134.087 756.857 135.429V137.857H752V135.429Z" fill="#444444"/>
<path d="M752 154.143C752 152.802 753.087 151.714 754.429 151.714C755.77 151.714 756.857 152.802 756.857 154.143V156.571H752V154.143Z" fill="#A8893A"/>
<path d="M752 163.857C752 162.516 753.087 161.429 754.429 161.429C755.77 161.429 756.857 162.516 756.857 163.857V166.286H752V163.857Z" fill="#444444"/>
<path d="M752 173.572C752 172.23 753.087 171.143 754.429 171.143C755.77 171.143 756.857 172.23 756.857 173.572V176H752V173.572Z" fill="#ABA585"/>
<path d="M761.714 144.429C761.714 143.087 762.801 142 764.142 142C765.484 142 766.571 143.087 766.571 144.429V146.857H761.714V144.429Z" fill="#A8893A"/>
<path d="M761.714 154.143C761.714 152.802 762.801 151.714 764.142 151.714C765.484 151.714 766.571 152.802 766.571 154.143V156.571H761.714V154.143Z" fill="#A8893A"/>
<path d="M761.714 163.857C761.714 162.516 762.801 161.429 764.142 161.429C765.484 161.429 766.571 162.516 766.571 163.857V166.286H761.714V163.857Z" fill="#A8893A"/>
<path d="M761.714 173.572C761.714 172.23 762.801 171.143 764.142 171.143C765.484 171.143 766.571 172.23 766.571 173.572V176H761.714V173.572Z" fill="#444444"/>
<path d="M774 144.429C774 143.087 775.087 142 776.429 142C777.77 142 778.857 143.087 778.857 144.429V146.857H774V144.429Z" fill="#ABA585"/>
<path d="M774 135.429C774 134.087 775.087 133 776.429 133C777.77 133 778.857 134.087 778.857 135.429V137.857H774V135.429Z" fill="#444444"/>
<path d="M774 154.143C774 152.802 775.087 151.714 776.429 151.714C777.77 151.714 778.857 152.802 778.857 154.143V156.571H774V154.143Z" fill="#A8893A"/>
<path d="M774 163.857C774 162.516 775.087 161.429 776.429 161.429C777.77 161.429 778.857 162.516 778.857 163.857V166.286H774V163.857Z" fill="#444444"/>
<path d="M774 173.572C774 172.23 775.087 171.143 776.429 171.143C777.77 171.143 778.857 172.23 778.857 173.572V176H774V173.572Z" fill="#ABA585"/>
<path d="M783.714 144.429C783.714 143.087 784.801 142 786.142 142C787.484 142 788.571 143.087 788.571 144.429V146.857H783.714V144.429Z" fill="#A8893A"/>
<path d="M783.714 135.429C783.714 134.087 784.801 133 786.142 133C787.484 133 788.571 134.087 788.571 135.429V137.857H783.714V135.429Z" fill="#444444"/>
<path d="M783.714 154.143C783.714 152.802 784.801 151.714 786.142 151.714C787.484 151.714 788.571 152.802 788.571 154.143V156.571H783.714V154.143Z" fill="#A8893A"/>
<path d="M783.714 163.857C783.714 162.516 784.801 161.429 786.142 161.429C787.484 161.429 788.571 162.516 788.571 163.857V166.286H783.714V163.857Z" fill="#A8893A"/>
<path d="M783.714 173.572C783.714 172.23 784.801 171.143 786.142 171.143C787.484 171.143 788.571 172.23 788.571 173.572V176H783.714V173.572Z" fill="#444444"/>
<path d="M126 91C126 88.2386 128.239 86 131 86C133.761 86 136 88.2386 136 91V96H126V91Z" fill="#ABA585"/>
<path d="M126 71C126 68.2386 128.239 66 131 66C133.761 66 136 68.2386 136 71V76H126V71Z" fill="#A8893A"/>
<path d="M126 111C126 108.239 128.239 106 131 106C133.761 106 136 108.239 136 111V116H126V111Z" fill="#A8893A"/>
<path d="M126 131C126 128.239 128.239 126 131 126C133.761 126 136 128.239 136 131V136H126V131Z" fill="#A8893A"/>
<path d="M126 151C126 148.239 128.239 146 131 146C133.761 146 136 148.239 136 151V156H126V151Z" fill="#444444"/>
<path d="M146 91C146 88.2386 148.239 86 151 86C153.761 86 156 88.2386 156 91V96H146V91Z" fill="#444444"/>
<path d="M146 71C146 68.2386 148.239 66 151 66C153.761 66 156 68.2386 156 71V76H146V71Z" fill="#ABA585"/>
<path d="M146 111C146 108.239 148.239 106 151 106C153.761 106 156 108.239 156 111V116H146V111Z" fill="#A8893A"/>
<path d="M146 131C146 128.239 148.239 126 151 126C153.761 126 156 128.239 156 131V136H146V131Z" fill="#444444"/>
<path d="M146 151C146 148.239 148.239 146 151 146C153.761 146 156 148.239 156 151V156H146V151Z" fill="#444444"/>
<path d="M1151.99 99.8332C1151.99 97.532 1153.85 95.6665 1156.15 95.6665C1158.45 95.6665 1160.32 97.532 1160.32 99.8332V104H1151.99V99.8332Z" fill="#ABA585"/>
<path d="M1151.99 83.1667C1151.99 80.8655 1153.85 79 1156.15 79C1158.45 79 1160.32 80.8655 1160.32 83.1667V87.3333H1151.99V83.1667Z" fill="#A8893A"/>
<path d="M1151.99 116.5C1151.99 114.199 1153.85 112.333 1156.15 112.333C1158.45 112.333 1160.32 114.199 1160.32 116.5V120.667H1151.99V116.5Z" fill="#A8893A"/>
<path d="M1151.99 133.167C1151.99 130.865 1153.85 129 1156.15 129C1158.45 129 1160.32 130.865 1160.32 133.167V137.333H1151.99V133.167Z" fill="#A8893A"/>
<path d="M1151.99 149.833C1151.99 147.532 1153.85 145.667 1156.15 145.667C1158.45 145.667 1160.32 147.532 1160.32 149.833V154H1151.99V149.833Z" fill="#444444"/>
<path d="M1168.65 99.8332C1168.65 97.532 1170.52 95.6665 1172.82 95.6665C1175.12 95.6665 1176.99 97.532 1176.99 99.8332V104H1168.65V99.8332Z" fill="#444444"/>
<path d="M1168.65 83.1667C1168.65 80.8655 1170.52 79 1172.82 79C1175.12 79 1176.99 80.8655 1176.99 83.1667V87.3333H1168.65V83.1667Z" fill="#ABA585"/>
<path d="M1168.65 116.5C1168.65 114.199 1170.52 112.333 1172.82 112.333C1175.12 112.333 1176.99 114.199 1176.99 116.5V120.667H1168.65V116.5Z" fill="#A8893A"/>
<path d="M1168.65 133.167C1168.65 130.865 1170.52 129 1172.82 129C1175.12 129 1176.99 130.865 1176.99 133.167V137.333H1168.65V133.167Z" fill="#444444"/>
<path d="M1168.65 149.833C1168.65 147.532 1170.52 145.667 1172.82 145.667C1175.12 145.667 1176.99 147.532 1176.99 149.833V154H1168.65V149.833Z" fill="#444444"/>
<path d="M1188.99 104.611C1188.99 102.555 1190.65 100.889 1192.71 100.889C1194.76 100.889 1196.43 102.555 1196.43 104.611V108.333H1188.99V104.611Z" fill="#ABA585"/>
<path d="M1188.99 89.7222C1188.99 87.6665 1190.65 86 1192.71 86C1194.76 86 1196.43 87.6665 1196.43 89.7222V93.4444H1188.99V89.7222Z" fill="#A8893A"/>
<path d="M1188.99 119.5C1188.99 117.444 1190.65 115.778 1192.71 115.778C1194.76 115.778 1196.43 117.444 1196.43 119.5V123.222H1188.99V119.5Z" fill="#A8893A"/>
<path d="M1188.99 134.389C1188.99 132.333 1190.65 130.667 1192.71 130.667C1194.76 130.667 1196.43 132.333 1196.43 134.389V138.111H1188.99V134.389Z" fill="#A8893A"/>
<path d="M1188.99 149.278C1188.99 147.222 1190.65 145.556 1192.71 145.556C1194.76 145.556 1196.43 147.222 1196.43 149.278V153H1188.99V149.278Z" fill="#444444"/>
<path d="M1203.88 104.611C1203.88 102.555 1205.54 100.889 1207.6 100.889C1209.65 100.889 1211.32 102.555 1211.32 104.611V108.333H1203.88V104.611Z" fill="#444444"/>
<path d="M1203.88 89.7222C1203.88 87.6665 1205.54 86 1207.6 86C1209.65 86 1211.32 87.6665 1211.32 89.7222V93.4444H1203.88V89.7222Z" fill="#ABA585"/>
<path d="M1203.88 119.5C1203.88 117.444 1205.54 115.778 1207.6 115.778C1209.65 115.778 1211.32 117.444 1211.32 119.5V123.222H1203.88V119.5Z" fill="#A8893A"/>
<path d="M1203.88 134.389C1203.88 132.333 1205.54 130.667 1207.6 130.667C1209.65 130.667 1211.32 132.333 1211.32 134.389V138.111H1203.88V134.389Z" fill="#444444"/>
<path d="M1203.88 149.278C1203.88 147.222 1205.54 145.556 1207.6 145.556C1209.65 145.556 1211.32 147.222 1211.32 149.278V153H1203.88V149.278Z" fill="#444444"/>
<path d="M921.687 113.111C921.687 110.779 923.577 108.889 925.909 108.889C928.241 108.889 930.131 110.779 930.131 113.111V117.333H921.687V113.111Z" fill="#ABA585"/>
<path d="M921.687 96.2222C921.687 93.8904 923.577 92 925.909 92C928.241 92 930.131 93.8904 930.131 96.2222V100.444H921.687V96.2222Z" fill="#A8893A"/>
<path d="M921.687 130C921.687 127.668 923.577 125.778 925.909 125.778C928.241 125.778 930.131 127.668 930.131 130V134.222H921.687V130Z" fill="#A8893A"/>
<path d="M921.687 146.889C921.687 144.557 923.577 142.667 925.909 142.667C928.241 142.667 930.131 144.557 930.131 146.889V151.111H921.687V146.889Z" fill="#A8893A"/>
<path d="M921.687 163.778C921.687 161.446 923.577 159.556 925.909 159.556C928.241 159.556 930.131 161.446 930.131 163.778V168H921.687V163.778Z" fill="#444444"/>
<path d="M938.575 113.111C938.575 110.779 940.466 108.889 942.797 108.889C945.129 108.889 947.02 110.779 947.02 113.111V117.333H938.575V113.111Z" fill="#444444"/>
<path d="M938.575 96.2222C938.575 93.8904 940.466 92 942.797 92C945.129 92 947.02 93.8904 947.02 96.2222V100.444H938.575V96.2222Z" fill="#ABA585"/>
<path d="M938.575 130C938.575 127.668 940.466 125.778 942.797 125.778C945.129 125.778 947.02 127.668 947.02 130V134.222H938.575V130Z" fill="#A8893A"/>
<path d="M938.575 146.889C938.575 144.557 940.466 142.667 942.797 142.667C945.129 142.667 947.02 144.557 947.02 146.889V151.111H938.575V146.889Z" fill="#444444"/>
<path d="M938.575 163.778C938.575 161.446 940.466 159.556 942.797 159.556C945.129 159.556 947.02 161.446 947.02 163.778V168H938.575V163.778Z" fill="#444444"/>
<path d="M893.986 116.778C893.986 114.814 895.578 113.222 897.542 113.222C899.506 113.222 901.097 114.814 901.097 116.778V120.333H893.986V116.778Z" fill="#ABA585"/>
<path d="M893.986 102.556C893.986 100.592 895.578 99 897.542 99C899.506 99 901.097 100.592 901.097 102.556V106.111H893.986V102.556Z" fill="#A8893A"/>
<path d="M893.986 131C893.986 129.036 895.578 127.444 897.542 127.444C899.506 127.444 901.097 129.036 901.097 131V134.555H893.986V131Z" fill="#A8893A"/>
<path d="M893.986 145.222C893.986 143.258 895.578 141.667 897.542 141.667C899.506 141.667 901.097 143.258 901.097 145.222V148.778H893.986V145.222Z" fill="#A8893A"/>
<path d="M893.986 159.444C893.986 157.481 895.578 155.889 897.542 155.889C899.506 155.889 901.097 157.481 901.097 159.444V163H893.986V159.444Z" fill="#444444"/>
<path d="M908.209 116.778C908.209 114.814 909.801 113.222 911.765 113.222C913.728 113.222 915.32 114.814 915.32 116.778V120.333H908.209V116.778Z" fill="#444444"/>
<path d="M908.209 102.556C908.209 100.592 909.801 99 911.765 99C913.728 99 915.32 100.592 915.32 102.556V106.111H908.209V102.556Z" fill="#ABA585"/>
<path d="M908.209 131C908.209 129.036 909.801 127.444 911.765 127.444C913.728 127.444 915.32 129.036 915.32 131V134.555H908.209V131Z" fill="#A8893A"/>
<path d="M908.209 145.222C908.209 143.258 909.801 141.667 911.765 141.667C913.728 141.667 915.32 143.258 915.32 145.222V148.778H908.209V145.222Z" fill="#444444"/>
<path d="M908.209 159.444C908.209 157.481 909.801 155.889 911.765 155.889C913.728 155.889 915.32 157.481 915.32 159.444V163H908.209V159.444Z" fill="#444444"/>
<path d="M497.986 125.167C497.986 123.602 499.255 122.333 500.82 122.333C502.384 122.333 503.653 123.602 503.653 125.167V128H497.986V125.167Z" fill="#ABA585"/>
<path d="M497.986 113.833C497.986 112.269 499.255 111 500.82 111C502.384 111 503.653 112.269 503.653 113.833V116.667H497.986V113.833Z" fill="#A8893A"/>
<path d="M497.986 136.5C497.986 134.935 499.255 133.667 500.82 133.667C502.384 133.667 503.653 134.935 503.653 136.5V139.333H497.986V136.5Z" fill="#A8893A"/>
<path d="M497.986 147.833C497.986 146.269 499.255 145 500.82 145C502.384 145 503.653 146.269 503.653 147.833V150.667H497.986V147.833Z" fill="#A8893A"/>
<path d="M497.986 159.167C497.986 157.602 499.255 156.333 500.82 156.333C502.384 156.333 503.653 157.602 503.653 159.167V162H497.986V159.167Z" fill="#444444"/>
<path d="M509.319 125.167C509.319 123.602 510.588 122.333 512.153 122.333C513.717 122.333 514.986 123.602 514.986 125.167V128H509.319V125.167Z" fill="#444444"/>
<path d="M509.319 113.833C509.319 112.269 510.588 111 512.153 111C513.717 111 514.986 112.269 514.986 113.833V116.667H509.319V113.833Z" fill="#ABA585"/>
<path d="M509.319 136.5C509.319 134.935 510.588 133.667 512.153 133.667C513.717 133.667 514.986 134.935 514.986 136.5V139.333H509.319V136.5Z" fill="#A8893A"/>
<path d="M509.319 147.833C509.319 146.269 510.588 145 512.153 145C513.717 145 514.986 146.269 514.986 147.833V150.667H509.319V147.833Z" fill="#444444"/>
<path d="M509.319 159.167C509.319 157.602 510.588 156.333 512.153 156.333C513.717 156.333 514.986 157.602 514.986 159.167V162H509.319V159.167Z" fill="#444444"/>
<path d="M391.986 128.889C391.986 127.355 393.23 126.111 394.764 126.111C396.298 126.111 397.542 127.355 397.542 128.889V131.667H391.986V128.889Z" fill="#ABA585"/>
<path d="M391.986 117.778C391.986 116.244 393.23 115 394.764 115C396.298 115 397.542 116.244 397.542 117.778V120.556H391.986V117.778Z" fill="#A8893A"/>
<path d="M391.986 140C391.986 138.466 393.23 137.222 394.764 137.222C396.298 137.222 397.542 138.466 397.542 140V142.778H391.986V140Z" fill="#A8893A"/>
<path d="M391.986 151.111C391.986 149.577 393.23 148.333 394.764 148.333C396.298 148.333 397.542 149.577 397.542 151.111V153.889H391.986V151.111Z" fill="#A8893A"/>
<path d="M391.986 162.223C391.986 160.688 393.23 159.445 394.764 159.445C396.298 159.445 397.542 160.688 397.542 162.223V165H391.986V162.223Z" fill="#444444"/>
<path d="M403.098 128.889C403.098 127.355 404.341 126.111 405.875 126.111C407.41 126.111 408.653 127.355 408.653 128.889V131.667H403.098V128.889Z" fill="#444444"/>
<path d="M403.098 117.778C403.098 116.244 404.341 115 405.875 115C407.41 115 408.653 116.244 408.653 117.778V120.556H403.098V117.778Z" fill="#ABA585"/>
<path d="M403.098 140C403.098 138.466 404.341 137.222 405.875 137.222C407.41 137.222 408.653 138.466 408.653 140V142.778H403.098V140Z" fill="#A8893A"/>
<path d="M403.098 151.111C403.098 149.577 404.341 148.333 405.875 148.333C407.41 148.333 408.653 149.577 408.653 151.111V153.889H403.098V151.111Z" fill="#444444"/>
<path d="M403.098 162.223C403.098 160.688 404.341 159.445 405.875 159.445C407.41 159.445 408.653 160.688 408.653 162.223V165H403.098V162.223Z" fill="#444444"/>
<path d="M362.986 123.542C362.986 121.647 364.522 120.111 366.417 120.111C368.311 120.111 369.847 121.647 369.847 123.542V126.667H362.986V123.542Z" fill="#ABA585"/>
<path d="M362.986 110.43C362.986 108.536 364.522 107 366.417 107C368.311 107 369.847 108.536 369.847 110.43V113.556H362.986V110.43Z" fill="#A8893A"/>
<path d="M362.986 136.653C362.986 134.758 364.522 133.223 366.417 133.223C368.311 133.223 369.847 134.758 369.847 136.653V139.778H362.986V136.653Z" fill="#A8893A"/>
<path d="M362.986 149.763C362.986 147.869 364.522 146.333 366.417 146.333C368.311 146.333 369.847 147.869 369.847 149.763V152.889H362.986V149.763Z" fill="#A8893A"/>
<path d="M362.986 162.875C362.986 160.98 364.522 159.444 366.417 159.444C368.311 159.444 369.847 160.98 369.847 162.875V166H362.986V162.875Z" fill="#444444"/>
<path d="M375.216 123.542C375.216 121.647 376.752 120.111 378.646 120.111C380.541 120.111 382.076 121.647 382.076 123.542V126.667H375.216V123.542Z" fill="#444444"/>
<path d="M375.216 110.43C375.216 108.536 376.752 107 378.646 107C380.541 107 382.076 108.536 382.076 110.43V113.556H375.216V110.43Z" fill="#ABA585"/>
<path d="M375.216 136.653C375.216 134.758 376.752 133.223 378.646 133.223C380.541 133.223 382.076 134.758 382.076 136.653V139.778H375.216V136.653Z" fill="#A8893A"/>
<path d="M375.216 149.763C375.216 147.869 376.752 146.333 378.646 146.333C380.541 146.333 382.076 147.869 382.076 149.763V152.889H375.216V149.763Z" fill="#444444"/>
<path d="M375.216 162.875C375.216 160.98 376.752 159.444 378.646 159.444C380.541 159.444 382.076 160.98 382.076 162.875V166H375.216V162.875Z" fill="#444444"/>
<path d="M1063.99 94.9175C1063.99 92.1561 1066.22 89.9175 1068.99 89.9175H1069.41C1072.17 89.9175 1074.41 92.1561 1074.41 94.9175V99.8762H1063.99V94.9175Z" fill="#ABA585"/>
<path d="M1063.99 75C1063.99 72.2386 1066.22 70 1068.99 70H1069.41C1072.17 70 1074.41 72.2386 1074.41 75V79.9587H1063.99V75Z" fill="#A8893A"/>
<path d="M1063.99 114.835C1063.99 112.074 1066.22 109.835 1068.99 109.835H1069.41C1072.17 109.835 1074.41 112.074 1074.41 114.835V119.794H1063.99V114.835Z" fill="#A8893A"/>
<path d="M1063.99 134.752C1063.99 131.991 1066.22 129.752 1068.99 129.752H1069.41C1072.17 129.752 1074.41 131.991 1074.41 134.752V139.711H1063.99V134.752Z" fill="#A8893A"/>
<path d="M1063.99 154.669C1063.99 151.908 1066.22 149.669 1068.99 149.669H1069.41C1072.17 149.669 1074.41 151.908 1074.41 154.669V159.628H1063.99V154.669Z" fill="#444444"/>
<path d="M1082.56 94.9175C1082.56 92.1561 1084.8 89.9175 1087.56 89.9175H1087.99C1090.75 89.9175 1092.99 92.1561 1092.99 94.9175V99.8762H1082.56V94.9175Z" fill="#444444"/>
<path d="M1082.56 75C1082.56 72.2386 1084.8 70 1087.56 70H1087.99C1090.75 70 1092.99 72.2386 1092.99 75V79.9587H1082.56V75Z" fill="#ABA585"/>
<path d="M1082.56 114.835C1082.56 112.074 1084.8 109.835 1087.56 109.835H1087.99C1090.75 109.835 1092.99 112.074 1092.99 114.835V119.794H1082.56V114.835Z" fill="#A8893A"/>
<path d="M1082.56 134.752C1082.56 131.991 1084.8 129.752 1087.56 129.752H1087.99C1090.75 129.752 1092.99 131.991 1092.99 134.752V139.711H1082.56V134.752Z" fill="#444444"/>
<path d="M1082.56 154.669C1082.56 151.908 1084.8 149.669 1087.56 149.669H1087.99C1090.75 149.669 1092.99 151.908 1092.99 154.669V159.628H1082.56V154.669Z" fill="#444444"/>
<path d="M567.986 130.336C567.986 128.923 569.132 127.778 570.544 127.778C571.957 127.778 573.103 128.923 573.103 130.336V132.667H567.986V130.336Z" fill="#ABA585"/>
<path d="M567.986 120.558C567.986 119.145 569.132 118 570.544 118C571.957 118 573.103 119.145 573.103 120.558V122.889H567.986V120.558Z" fill="#A8893A"/>
<path d="M567.986 140.114C567.986 138.701 569.132 137.556 570.544 137.556C571.957 137.556 573.103 138.701 573.103 140.114V142.445H567.986V140.114Z" fill="#A8893A"/>
<path d="M567.986 149.891C567.986 148.478 569.132 147.333 570.544 147.333C571.957 147.333 573.103 148.478 573.103 149.891V152.222H567.986V149.891Z" fill="#A8893A"/>
<path d="M567.986 159.669C567.986 158.256 569.132 157.111 570.544 157.111C571.957 157.111 573.103 158.256 573.103 159.669V162H567.986V159.669Z" fill="#444444"/>
<path d="M577.106 130.336C577.106 128.923 578.252 127.778 579.665 127.778C581.077 127.778 582.223 128.923 582.223 130.336V132.667H577.106V130.336Z" fill="#444444"/>
<path d="M577.106 120.558C577.106 119.145 578.252 118 579.665 118C581.077 118 582.223 119.145 582.223 120.558V122.889H577.106V120.558Z" fill="#ABA585"/>
<path d="M577.106 140.114C577.106 138.701 578.252 137.556 579.665 137.556C581.077 137.556 582.223 138.701 582.223 140.114V142.445H577.106V140.114Z" fill="#A8893A"/>
<path d="M577.106 149.891C577.106 148.478 578.252 147.333 579.665 147.333C581.077 147.333 582.223 148.478 582.223 149.891V152.222H577.106V149.891Z" fill="#444444"/>
<path d="M577.106 159.669C577.106 158.256 578.252 157.111 579.665 157.111C581.077 157.111 582.223 158.256 582.223 159.669V162H577.106V159.669Z" fill="#444444"/>
<rect x="96" y="82" width="3" height="3" rx="1" fill="#A8893A"/>
<rect x="96" y="88" width="3" height="3" rx="1" fill="#444444"/>
<rect x="96" y="94" width="3" height="3" rx="1" fill="#A8893A"/>
<rect x="96" y="100" width="3" height="3" rx="1" fill="#A8893A"/>
<rect x="96" y="106" width="3" height="3" rx="1" fill="#FF9270"/>
<rect x="96" y="112" width="3" height="3" rx="1" fill="#444444"/>
<rect x="96" y="118" width="3" height="3" rx="1" fill="#FF9270"/>
<rect x="96" y="124" width="3" height="3" rx="1" fill="#A8893A"/>
<rect x="96" y="130" width="3" height="3" rx="1" fill="#FF9270"/>
<rect x="96" y="136" width="3" height="3" rx="1" fill="#A8893A"/>
<rect x="96" y="142" width="3" height="3" rx="1" fill="#FF9270"/>
<rect x="96" y="148" width="3" height="3" rx="1" fill="#FF9270"/>
<rect x="100" y="82" width="3" height="3" rx="1" fill="#A8893A"/>
<rect x="100" y="88" width="3" height="3" rx="1" fill="#A8893A"/>
<rect x="100" y="94" width="3" height="3" rx="1" fill="#444444"/>
<rect x="100" y="100" width="3" height="3" rx="1" fill="#444444"/>
<rect x="100" y="106" width="3" height="3" rx="1" fill="#A8893A"/>
<rect x="100" y="112" width="3" height="3" rx="1" fill="#A8893A"/>
<rect x="100" y="118" width="3" height="3" rx="1" fill="#A8893A"/>
<rect x="100" y="124" width="3" height="3" rx="1" fill="#A8893A"/>
<rect x="100" y="130" width="3" height="3" rx="1" fill="#444444"/>
<rect x="100" y="136" width="3" height="3" rx="1" fill="#444444"/>
<rect x="100" y="142" width="3" height="3" rx="1" fill="#A8893A"/>
<rect x="100" y="148" width="3" height="3" rx="1" fill="#444444"/>
<rect x="104" y="82" width="3" height="3" rx="1" fill="#444444"/>
<rect x="104" y="88" width="3" height="3" rx="1" fill="#A8893A"/>
<rect x="104" y="94" width="3" height="3" rx="1" fill="#A8893A"/>
<rect x="104" y="100" width="3" height="3" rx="1" fill="#A8893A"/>
<rect x="104" y="106" width="3" height="3" rx="1" fill="#444444"/>
<rect x="104" y="112" width="3" height="3" rx="1" fill="#A8893A"/>
<rect x="104" y="118" width="3" height="3" rx="1" fill="#444444"/>
<rect x="104" y="124" width="3" height="3" rx="1" fill="#444444"/>
<rect x="104" y="130" width="3" height="3" rx="1" fill="#A8893A"/>
<rect x="104" y="136" width="3" height="3" rx="1" fill="#444444"/>
<rect x="104" y="142" width="3" height="3" rx="1" fill="#444444"/>
<rect x="104" y="148" width="3" height="3" rx="1" fill="#A8893A"/>
<rect x="108" y="82" width="3" height="3" rx="1" fill="#FF9270"/>
<rect x="108" y="88" width="3" height="3" rx="1" fill="#444444"/>
<rect x="108" y="94" width="3" height="3" rx="1" fill="#FF9270"/>
<rect x="108" y="100" width="3" height="3" rx="1" fill="#A8893A"/>
<rect x="108" y="106" width="3" height="3" rx="1" fill="#FF9270"/>
<rect x="108" y="112" width="3" height="3" rx="1" fill="#444444"/>
<rect x="108" y="118" width="3" height="3" rx="1" fill="#FF9270"/>
<rect x="108" y="124" width="3" height="3" rx="1" fill="#A8893A"/>
<rect x="108" y="130" width="3" height="3" rx="1" fill="#FF9270"/>
<rect x="108" y="136" width="3" height="3" rx="1" fill="#A8893A"/>
<rect x="108" y="142" width="3" height="3" rx="1" fill="#444444"/>
<rect x="108" y="148" width="3" height="3" rx="1" fill="#444444"/>
<rect x="112" y="82" width="3" height="3" rx="1" fill="#A8893A"/>
<rect x="112" y="88" width="3" height="3" rx="1" fill="#FF9270"/>
<rect x="112" y="94" width="3" height="3" rx="1" fill="#A8893A"/>
<rect x="112" y="100" width="3" height="3" rx="1" fill="#A8893A"/>
<rect x="112" y="106" width="3" height="3" rx="1" fill="#444444"/>
<rect x="112" y="112" width="3" height="3" rx="1" fill="#FF9270"/>
<rect x="112" y="118" width="3" height="3" rx="1" fill="#A8893A"/>
<rect x="112" y="124" width="3" height="3" rx="1" fill="#444444"/>
<rect x="112" y="130" width="3" height="3" rx="1" fill="#444444"/>
<rect x="112" y="136" width="3" height="3" rx="1" fill="#444444"/>
<rect x="112" y="142" width="3" height="3" rx="1" fill="#FF9270"/>
<rect x="112" y="148" width="3" height="3" rx="1" fill="#A8893A"/>
<rect x="954.986" y="79" width="3.73913" height="3.73913" rx="1" fill="#A8893A"/>
<rect x="954.986" y="86.478" width="3.73913" height="3.73913" rx="1" fill="#444444"/>
<rect x="954.986" y="93.9565" width="3.73913" height="3.73913" rx="1" fill="#A8893A"/>
<rect x="954.986" y="101.435" width="3.73913" height="3.73913" rx="1" fill="#A8893A"/>
<rect x="954.986" y="108.913" width="3.73913" height="3.73913" rx="1" fill="#FF9270"/>
<rect x="954.986" y="116.391" width="3.73913" height="3.73913" rx="1" fill="#444444"/>
<rect x="954.986" y="123.87" width="3.73913" height="3.73913" rx="1" fill="#FF9270"/>
<rect x="954.986" y="131.348" width="3.73913" height="3.73913" rx="1" fill="#A8893A"/>
<rect x="954.986" y="138.826" width="3.73913" height="3.73913" rx="1" fill="#FF9270"/>
<rect x="954.986" y="146.304" width="3.73913" height="3.73913" rx="1" fill="#A8893A"/>
<rect x="954.986" y="153.783" width="3.73913" height="3.73913" rx="1" fill="#FF9270"/>
<rect x="954.986" y="161.261" width="3.73913" height="3.73913" rx="1" fill="#FF9270"/>
<rect x="959.972" y="79" width="3.73913" height="3.73913" rx="1" fill="#A8893A"/>
<rect x="959.972" y="86.478" width="3.73913" height="3.73913" rx="1" fill="#A8893A"/>
<rect x="959.972" y="93.9565" width="3.73913" height="3.73913" rx="1" fill="#444444"/>
<rect x="959.972" y="101.435" width="3.73913" height="3.73913" rx="1" fill="#444444"/>
<rect x="959.972" y="108.913" width="3.73913" height="3.73913" rx="1" fill="#A8893A"/>
<rect x="959.972" y="116.391" width="3.73913" height="3.73913" rx="1" fill="#A8893A"/>
<rect x="959.972" y="123.87" width="3.73913" height="3.73913" rx="1" fill="#A8893A"/>
<rect x="959.972" y="131.348" width="3.73913" height="3.73913" rx="1" fill="#A8893A"/>
<rect x="959.972" y="138.826" width="3.73913" height="3.73913" rx="1" fill="#444444"/>
<rect x="959.972" y="146.304" width="3.73913" height="3.73913" rx="1" fill="#444444"/>
<rect x="959.972" y="153.783" width="3.73913" height="3.73913" rx="1" fill="#A8893A"/>
<rect x="959.972" y="161.261" width="3.73913" height="3.73913" rx="1" fill="#444444"/>
<rect x="964.957" y="79" width="3.73913" height="3.73913" rx="1" fill="#444444"/>
<rect x="964.957" y="86.478" width="3.73913" height="3.73913" rx="1" fill="#A8893A"/>
<rect x="964.957" y="93.9565" width="3.73913" height="3.73913" rx="1" fill="#A8893A"/>
<rect x="964.957" y="101.435" width="3.73913" height="3.73913" rx="1" fill="#A8893A"/>
<rect x="964.957" y="108.913" width="3.73913" height="3.73913" rx="1" fill="#444444"/>
<rect x="964.957" y="116.391" width="3.73913" height="3.73913" rx="1" fill="#A8893A"/>
<rect x="964.957" y="123.87" width="3.73913" height="3.73913" rx="1" fill="#444444"/>
<rect x="964.957" y="131.348" width="3.73913" height="3.73913" rx="1" fill="#444444"/>
<rect x="964.957" y="138.826" width="3.73913" height="3.73913" rx="1" fill="#A8893A"/>
<rect x="964.957" y="146.304" width="3.73913" height="3.73913" rx="1" fill="#444444"/>
<rect x="964.957" y="153.783" width="3.73913" height="3.73913" rx="1" fill="#444444"/>
<rect x="964.957" y="161.261" width="3.73913" height="3.73913" rx="1" fill="#A8893A"/>
<rect x="969.942" y="79" width="3.73913" height="3.73913" rx="1" fill="#FF9270"/>
<rect x="969.942" y="86.478" width="3.73913" height="3.73913" rx="1" fill="#444444"/>
<rect x="969.942" y="93.9565" width="3.73913" height="3.73913" rx="1" fill="#FF9270"/>
<rect x="969.942" y="101.435" width="3.73913" height="3.73913" rx="1" fill="#A8893A"/>
<rect x="969.942" y="108.913" width="3.73913" height="3.73913" rx="1" fill="#FF9270"/>
<rect x="969.942" y="116.391" width="3.73913" height="3.73913" rx="1" fill="#444444"/>
<rect x="969.942" y="123.87" width="3.73913" height="3.73913" rx="1" fill="#FF9270"/>
<rect x="969.942" y="131.348" width="3.73913" height="3.73913" rx="1" fill="#A8893A"/>
<rect x="969.942" y="138.826" width="3.73913" height="3.73913" rx="1" fill="#FF9270"/>
<rect x="969.942" y="146.304" width="3.73913" height="3.73913" rx="1" fill="#A8893A"/>
<rect x="969.942" y="153.783" width="3.73913" height="3.73913" rx="1" fill="#444444"/>
<rect x="969.942" y="161.261" width="3.73913" height="3.73913" rx="1" fill="#444444"/>
<rect x="974.929" y="79" width="3.73913" height="3.73913" rx="1" fill="#A8893A"/>
<rect x="974.929" y="86.478" width="3.73913" height="3.73913" rx="1" fill="#FF9270"/>
<rect x="974.929" y="93.9565" width="3.73913" height="3.73913" rx="1" fill="#A8893A"/>
<rect x="974.929" y="101.435" width="3.73913" height="3.73913" rx="1" fill="#A8893A"/>
<rect x="974.929" y="108.913" width="3.73913" height="3.73913" rx="1" fill="#444444"/>
<rect x="974.929" y="116.391" width="3.73913" height="3.73913" rx="1" fill="#FF9270"/>
<rect x="974.929" y="123.87" width="3.73913" height="3.73913" rx="1" fill="#A8893A"/>
<rect x="974.929" y="131.348" width="3.73913" height="3.73913" rx="1" fill="#444444"/>
<rect x="974.929" y="138.826" width="3.73913" height="3.73913" rx="1" fill="#444444"/>
<rect x="974.929" y="146.304" width="3.73913" height="3.73913" rx="1" fill="#444444"/>
<rect x="974.929" y="153.783" width="3.73913" height="3.73913" rx="1" fill="#FF9270"/>
<rect x="974.929" y="161.261" width="3.73913" height="3.73913" rx="1" fill="#A8893A"/>
<rect x="1109.99" y="66" width="3.91304" height="3.91304" rx="1" fill="#A8893A"/>
<rect x="1109.99" y="73.8257" width="3.91304" height="3.91304" rx="1" fill="#444444"/>
<rect x="1109.99" y="81.6523" width="3.91304" height="3.91304" rx="1" fill="#A8893A"/>
<rect x="1109.99" y="89.478" width="3.91304" height="3.91304" rx="1" fill="#A8893A"/>
<rect x="1109.99" y="97.3042" width="3.91304" height="3.91304" rx="1" fill="#FF9270"/>
<rect x="1109.99" y="105.13" width="3.91304" height="3.91304" rx="1" fill="#444444"/>
<rect x="1109.99" y="112.957" width="3.91304" height="3.91304" rx="1" fill="#FF9270"/>
<rect x="1109.99" y="120.782" width="3.91304" height="3.91304" rx="1" fill="#A8893A"/>
<rect x="1109.99" y="128.609" width="3.91304" height="3.91304" rx="1" fill="#FF9270"/>
<rect x="1109.99" y="136.435" width="3.91304" height="3.91304" rx="1" fill="#A8893A"/>
<rect x="1109.99" y="144.261" width="3.91304" height="3.91304" rx="1" fill="#FF9270"/>
<rect x="1109.99" y="152.087" width="3.91304" height="3.91304" rx="1" fill="#FF9270"/>
<rect x="1115.2" y="66" width="3.91304" height="3.91304" rx="1" fill="#A8893A"/>
<rect x="1115.2" y="73.8257" width="3.91304" height="3.91304" rx="1" fill="#A8893A"/>
<rect x="1115.2" y="81.6523" width="3.91304" height="3.91304" rx="1" fill="#444444"/>
<rect x="1115.2" y="89.478" width="3.91304" height="3.91304" rx="1" fill="#444444"/>
<rect x="1115.2" y="97.3042" width="3.91304" height="3.91304" rx="1" fill="#A8893A"/>
<rect x="1115.2" y="105.13" width="3.91304" height="3.91304" rx="1" fill="#A8893A"/>
<rect x="1115.2" y="112.957" width="3.91304" height="3.91304" rx="1" fill="#A8893A"/>
<rect x="1115.2" y="120.782" width="3.91304" height="3.91304" rx="1" fill="#A8893A"/>
<rect x="1115.2" y="128.609" width="3.91304" height="3.91304" rx="1" fill="#444444"/>
<rect x="1115.2" y="136.435" width="3.91304" height="3.91304" rx="1" fill="#444444"/>
<rect x="1115.2" y="144.261" width="3.91304" height="3.91304" rx="1" fill="#A8893A"/>
<rect x="1115.2" y="152.087" width="3.91304" height="3.91304" rx="1" fill="#444444"/>
<rect x="1120.42" y="66" width="3.91304" height="3.91304" rx="1" fill="#444444"/>
<rect x="1120.42" y="73.8257" width="3.91304" height="3.91304" rx="1" fill="#A8893A"/>
<rect x="1120.42" y="81.6523" width="3.91304" height="3.91304" rx="1" fill="#A8893A"/>
<rect x="1120.42" y="89.478" width="3.91304" height="3.91304" rx="1" fill="#A8893A"/>
<rect x="1120.42" y="97.3042" width="3.91304" height="3.91304" rx="1" fill="#444444"/>
<rect x="1120.42" y="105.13" width="3.91304" height="3.91304" rx="1" fill="#A8893A"/>
<rect x="1120.42" y="112.957" width="3.91304" height="3.91304" rx="1" fill="#444444"/>
<rect x="1120.42" y="120.782" width="3.91304" height="3.91304" rx="1" fill="#444444"/>
<rect x="1120.42" y="128.609" width="3.91304" height="3.91304" rx="1" fill="#A8893A"/>
<rect x="1120.42" y="136.435" width="3.91304" height="3.91304" rx="1" fill="#444444"/>
<rect x="1120.42" y="144.261" width="3.91304" height="3.91304" rx="1" fill="#444444"/>
<rect x="1120.42" y="152.087" width="3.91304" height="3.91304" rx="1" fill="#A8893A"/>
<rect x="1125.64" y="66" width="3.91304" height="3.91304" rx="1" fill="#FF9270"/>
<rect x="1125.64" y="73.8257" width="3.91304" height="3.91304" rx="1" fill="#444444"/>
<rect x="1125.64" y="81.6523" width="3.91304" height="3.91304" rx="1" fill="#FF9270"/>
<rect x="1125.64" y="89.478" width="3.91304" height="3.91304" rx="1" fill="#A8893A"/>
<rect x="1125.64" y="97.3042" width="3.91304" height="3.91304" rx="1" fill="#FF9270"/>
<rect x="1125.64" y="105.13" width="3.91304" height="3.91304" rx="1" fill="#444444"/>
<rect x="1125.64" y="112.957" width="3.91304" height="3.91304" rx="1" fill="#FF9270"/>
<rect x="1125.64" y="120.782" width="3.91304" height="3.91304" rx="1" fill="#A8893A"/>
<rect x="1125.64" y="128.609" width="3.91304" height="3.91304" rx="1" fill="#FF9270"/>
<rect x="1125.64" y="136.435" width="3.91304" height="3.91304" rx="1" fill="#A8893A"/>
<rect x="1125.64" y="144.261" width="3.91304" height="3.91304" rx="1" fill="#444444"/>
<rect x="1125.64" y="152.087" width="3.91304" height="3.91304" rx="1" fill="#444444"/>
<rect x="1130.86" y="66" width="3.91304" height="3.91304" rx="1" fill="#A8893A"/>
<rect x="1130.86" y="73.8257" width="3.91304" height="3.91304" rx="1" fill="#FF9270"/>
<rect x="1130.86" y="81.6523" width="3.91304" height="3.91304" rx="1" fill="#A8893A"/>
<rect x="1130.86" y="89.478" width="3.91304" height="3.91304" rx="1" fill="#A8893A"/>
<rect x="1130.86" y="97.3042" width="3.91304" height="3.91304" rx="1" fill="#444444"/>
<rect x="1130.86" y="105.13" width="3.91304" height="3.91304" rx="1" fill="#FF9270"/>
<rect x="1130.86" y="112.957" width="3.91304" height="3.91304" rx="1" fill="#A8893A"/>
<rect x="1130.86" y="120.782" width="3.91304" height="3.91304" rx="1" fill="#444444"/>
<rect x="1130.86" y="128.609" width="3.91304" height="3.91304" rx="1" fill="#444444"/>
<rect x="1130.86" y="136.435" width="3.91304" height="3.91304" rx="1" fill="#444444"/>
<rect x="1130.86" y="144.261" width="3.91304" height="3.91304" rx="1" fill="#FF9270"/>
<rect x="1130.86" y="152.087" width="3.91304" height="3.91304" rx="1" fill="#A8893A"/>
<rect x="416.986" y="100" width="3" height="3" rx="1" fill="#A8893A"/>
<rect x="416.986" y="106" width="3" height="3" rx="1" fill="#444444"/>
<rect x="416.986" y="112" width="3" height="3" rx="1" fill="#A8893A"/>
<rect x="416.986" y="118" width="3" height="3" rx="1" fill="#A8893A"/>
<rect x="416.986" y="124" width="3" height="3" rx="1" fill="#FF9270"/>
<rect x="416.986" y="130" width="3" height="3" rx="1" fill="#444444"/>
<rect x="416.986" y="136" width="3" height="3" rx="1" fill="#FF9270"/>
<rect x="416.986" y="142" width="3" height="3" rx="1" fill="#A8893A"/>
<rect x="416.986" y="148" width="3" height="3" rx="1" fill="#FF9270"/>
<rect x="416.986" y="154" width="3" height="3" rx="1" fill="#A8893A"/>
<rect x="416.986" y="160" width="3" height="3" rx="1" fill="#FF9270"/>
<rect x="416.986" y="166" width="3" height="3" rx="1" fill="#FF9270"/>
<rect x="420.986" y="100" width="3" height="3" rx="1" fill="#A8893A"/>
<rect x="420.986" y="106" width="3" height="3" rx="1" fill="#A8893A"/>
<rect x="420.986" y="112" width="3" height="3" rx="1" fill="#444444"/>
<rect x="420.986" y="118" width="3" height="3" rx="1" fill="#444444"/>
<rect x="420.986" y="124" width="3" height="3" rx="1" fill="#A8893A"/>
<rect x="420.986" y="130" width="3" height="3" rx="1" fill="#A8893A"/>
<rect x="420.986" y="136" width="3" height="3" rx="1" fill="#A8893A"/>
<rect x="420.986" y="142" width="3" height="3" rx="1" fill="#A8893A"/>
<rect x="420.986" y="148" width="3" height="3" rx="1" fill="#444444"/>
<rect x="420.986" y="154" width="3" height="3" rx="1" fill="#444444"/>
<rect x="420.986" y="160" width="3" height="3" rx="1" fill="#A8893A"/>
<rect x="420.986" y="166" width="3" height="3" rx="1" fill="#444444"/>
<rect x="424.986" y="100" width="3" height="3" rx="1" fill="#444444"/>
<rect x="424.986" y="106" width="3" height="3" rx="1" fill="#A8893A"/>
<rect x="424.986" y="112" width="3" height="3" rx="1" fill="#A8893A"/>
<rect x="424.986" y="118" width="3" height="3" rx="1" fill="#A8893A"/>
<rect x="424.986" y="124" width="3" height="3" rx="1" fill="#444444"/>
<rect x="424.986" y="130" width="3" height="3" rx="1" fill="#A8893A"/>
<rect x="424.986" y="136" width="3" height="3" rx="1" fill="#444444"/>
<rect x="424.986" y="142" width="3" height="3" rx="1" fill="#444444"/>
<rect x="424.986" y="148" width="3" height="3" rx="1" fill="#A8893A"/>
<rect x="424.986" y="154" width="3" height="3" rx="1" fill="#444444"/>
<rect x="424.986" y="160" width="3" height="3" rx="1" fill="#444444"/>
<rect x="424.986" y="166" width="3" height="3" rx="1" fill="#A8893A"/>
<rect x="428.986" y="100" width="3" height="3" rx="1" fill="#FF9270"/>
<rect x="428.986" y="106" width="3" height="3" rx="1" fill="#444444"/>
<rect x="428.986" y="112" width="3" height="3" rx="1" fill="#FF9270"/>
<rect x="428.986" y="118" width="3" height="3" rx="1" fill="#A8893A"/>
<rect x="428.986" y="124" width="3" height="3" rx="1" fill="#FF9270"/>
<rect x="428.986" y="130" width="3" height="3" rx="1" fill="#444444"/>
<rect x="428.986" y="136" width="3" height="3" rx="1" fill="#FF9270"/>
<rect x="428.986" y="142" width="3" height="3" rx="1" fill="#A8893A"/>
<rect x="428.986" y="148" width="3" height="3" rx="1" fill="#FF9270"/>
<rect x="428.986" y="154" width="3" height="3" rx="1" fill="#A8893A"/>
<rect x="428.986" y="160" width="3" height="3" rx="1" fill="#444444"/>
<rect x="428.986" y="166" width="3" height="3" rx="1" fill="#444444"/>
<rect x="432.986" y="100" width="3" height="3" rx="1" fill="#A8893A"/>
<rect x="432.986" y="106" width="3" height="3" rx="1" fill="#FF9270"/>
<rect x="432.986" y="112" width="3" height="3" rx="1" fill="#A8893A"/>
<rect x="432.986" y="118" width="3" height="3" rx="1" fill="#A8893A"/>
<rect x="432.986" y="124" width="3" height="3" rx="1" fill="#444444"/>
<rect x="432.986" y="130" width="3" height="3" rx="1" fill="#FF9270"/>
<rect x="432.986" y="136" width="3" height="3" rx="1" fill="#A8893A"/>
<rect x="432.986" y="142" width="3" height="3" rx="1" fill="#444444"/>
<rect x="432.986" y="148" width="3" height="3" rx="1" fill="#444444"/>
<rect x="432.986" y="154" width="3" height="3" rx="1" fill="#444444"/>
<rect x="432.986" y="160" width="3" height="3" rx="1" fill="#FF9270"/>
<rect x="432.986" y="166" width="3" height="3" rx="1" fill="#A8893A"/>
<rect x="607.986" y="126" width="2.13043" height="2.13043" rx="1" fill="#A8893A"/>
<rect x="607.986" y="130.261" width="2.13043" height="2.13043" rx="1" fill="#444444"/>
<rect x="607.986" y="134.522" width="2.13043" height="2.13043" rx="1" fill="#A8893A"/>
<rect x="607.986" y="138.783" width="2.13043" height="2.13043" rx="1" fill="#A8893A"/>
<rect x="607.986" y="143.043" width="2.13043" height="2.13043" rx="1" fill="#FF9270"/>
<rect x="607.986" y="147.304" width="2.13043" height="2.13043" rx="1" fill="#444444"/>
<rect x="607.986" y="151.565" width="2.13043" height="2.13043" rx="1" fill="#FF9270"/>
<rect x="607.986" y="155.826" width="2.13043" height="2.13043" rx="1" fill="#A8893A"/>
<rect x="607.986" y="160.087" width="2.13043" height="2.13043" rx="1" fill="#FF9270"/>
<rect x="607.986" y="164.348" width="2.13043" height="2.13043" rx="1" fill="#A8893A"/>
<rect x="607.986" y="168.609" width="2.13043" height="2.13043" rx="1" fill="#FF9270"/>
<rect x="607.986" y="172.87" width="2.13043" height="2.13043" rx="1" fill="#FF9270"/>
<rect x="610.827" y="126" width="2.13043" height="2.13043" rx="1" fill="#A8893A"/>
<rect x="610.827" y="130.261" width="2.13043" height="2.13043" rx="1" fill="#A8893A"/>
<rect x="610.827" y="134.522" width="2.13043" height="2.13043" rx="1" fill="#444444"/>
<rect x="610.827" y="138.783" width="2.13043" height="2.13043" rx="1" fill="#444444"/>
<rect x="610.827" y="143.043" width="2.13043" height="2.13043" rx="1" fill="#A8893A"/>
<rect x="610.827" y="147.304" width="2.13043" height="2.13043" rx="1" fill="#A8893A"/>
<rect x="610.827" y="151.565" width="2.13043" height="2.13043" rx="1" fill="#A8893A"/>
<rect x="610.827" y="155.826" width="2.13043" height="2.13043" rx="1" fill="#A8893A"/>
<rect x="610.827" y="160.087" width="2.13043" height="2.13043" rx="1" fill="#444444"/>
<rect x="610.827" y="164.348" width="2.13043" height="2.13043" rx="1" fill="#444444"/>
<rect x="610.827" y="168.609" width="2.13043" height="2.13043" rx="1" fill="#A8893A"/>
<rect x="610.827" y="172.87" width="2.13043" height="2.13043" rx="1" fill="#444444"/>
<rect x="613.668" y="126" width="2.13043" height="2.13043" rx="1" fill="#444444"/>
<rect x="613.668" y="130.261" width="2.13043" height="2.13043" rx="1" fill="#A8893A"/>
<rect x="613.668" y="134.522" width="2.13043" height="2.13043" rx="1" fill="#A8893A"/>
<rect x="613.668" y="138.783" width="2.13043" height="2.13043" rx="1" fill="#A8893A"/>
<rect x="613.668" y="143.043" width="2.13043" height="2.13043" rx="1" fill="#444444"/>
<rect x="613.668" y="147.304" width="2.13043" height="2.13043" rx="1" fill="#A8893A"/>
<rect x="613.668" y="151.565" width="2.13043" height="2.13043" rx="1" fill="#444444"/>
<rect x="613.668" y="155.826" width="2.13043" height="2.13043" rx="1" fill="#444444"/>
<rect x="613.668" y="160.087" width="2.13043" height="2.13043" rx="1" fill="#A8893A"/>
<rect x="613.668" y="164.348" width="2.13043" height="2.13043" rx="1" fill="#444444"/>
<rect x="613.668" y="168.609" width="2.13043" height="2.13043" rx="1" fill="#444444"/>
<rect x="613.668" y="172.87" width="2.13043" height="2.13043" rx="1" fill="#A8893A"/>
<rect x="616.508" y="126" width="2.13043" height="2.13043" rx="1" fill="#FF9270"/>
<rect x="616.508" y="130.261" width="2.13043" height="2.13043" rx="1" fill="#444444"/>
<rect x="616.508" y="134.522" width="2.13043" height="2.13043" rx="1" fill="#FF9270"/>
<rect x="616.508" y="138.783" width="2.13043" height="2.13043" rx="1" fill="#A8893A"/>
<rect x="616.508" y="143.043" width="2.13043" height="2.13043" rx="1" fill="#FF9270"/>
<rect x="616.508" y="147.304" width="2.13043" height="2.13043" rx="1" fill="#444444"/>
<rect x="616.508" y="151.565" width="2.13043" height="2.13043" rx="1" fill="#FF9270"/>
<rect x="616.508" y="155.826" width="2.13043" height="2.13043" rx="1" fill="#A8893A"/>
<rect x="616.508" y="160.087" width="2.13043" height="2.13043" rx="1" fill="#FF9270"/>
<rect x="616.508" y="164.348" width="2.13043" height="2.13043" rx="1" fill="#A8893A"/>
<rect x="616.508" y="168.609" width="2.13043" height="2.13043" rx="1" fill="#444444"/>
<rect x="616.508" y="172.87" width="2.13043" height="2.13043" rx="1" fill="#444444"/>
<rect x="619.349" y="126" width="2.13043" height="2.13043" rx="1" fill="#A8893A"/>
<rect x="619.349" y="130.261" width="2.13043" height="2.13043" rx="1" fill="#FF9270"/>
<rect x="619.349" y="134.522" width="2.13043" height="2.13043" rx="1" fill="#A8893A"/>
<rect x="619.349" y="138.783" width="2.13043" height="2.13043" rx="1" fill="#A8893A"/>
<rect x="619.349" y="143.043" width="2.13043" height="2.13043" rx="1" fill="#444444"/>
<rect x="619.349" y="147.304" width="2.13043" height="2.13043" rx="1" fill="#FF9270"/>
<rect x="619.349" y="151.565" width="2.13043" height="2.13043" rx="1" fill="#A8893A"/>
<rect x="619.349" y="155.826" width="2.13043" height="2.13043" rx="1" fill="#444444"/>
<rect x="619.349" y="160.087" width="2.13043" height="2.13043" rx="1" fill="#444444"/>
<rect x="619.349" y="164.348" width="2.13043" height="2.13043" rx="1" fill="#444444"/>
<rect x="619.349" y="168.609" width="2.13043" height="2.13043" rx="1" fill="#FF9270"/>
<rect x="619.349" y="172.87" width="2.13043" height="2.13043" rx="1" fill="#A8893A"/>
<rect x="305" y="97" width="3.31579" height="2.95652" rx="1" fill="#A8893A"/>
<rect x="305" y="102.913" width="3.31579" height="2.95652" rx="1" fill="#444444"/>
<rect x="305" y="108.827" width="3.31579" height="2.95652" rx="1" fill="#A8893A"/>
<rect x="305" y="114.739" width="3.31579" height="2.95652" rx="1" fill="#A8893A"/>
<rect x="305" y="120.652" width="3.31579" height="2.95652" rx="1" fill="#FF9270"/>
<rect x="305" y="126.565" width="3.31579" height="2.95652" rx="1" fill="#444444"/>
<rect x="305" y="132.479" width="3.31579" height="2.95652" rx="1" fill="#FF9270"/>
<rect x="305" y="138.392" width="3.31579" height="2.95652" rx="1" fill="#A8893A"/>
<rect x="305" y="144.304" width="3.31579" height="2.95652" rx="1" fill="#FF9270"/>
<rect x="305" y="150.217" width="3.31579" height="2.95652" rx="1" fill="#A8893A"/>
<rect x="305" y="156.131" width="3.31579" height="2.95652" rx="1" fill="#FF9270"/>
<rect x="305" y="162.043" width="3.31579" height="2.95652" rx="1" fill="#FF9270"/>
<rect x="309.421" y="97" width="3.31579" height="2.95652" rx="1" fill="#A8893A"/>
<rect x="309.421" y="102.913" width="3.31579" height="2.95652" rx="1" fill="#A8893A"/>
<rect x="309.421" y="108.827" width="3.31579" height="2.95652" rx="1" fill="#444444"/>
<rect x="309.421" y="114.739" width="3.31579" height="2.95652" rx="1" fill="#444444"/>
<rect x="309.421" y="120.652" width="3.31579" height="2.95652" rx="1" fill="#A8893A"/>
<rect x="309.421" y="126.565" width="3.31579" height="2.95652" rx="1" fill="#A8893A"/>
<rect x="309.421" y="132.479" width="3.31579" height="2.95652" rx="1" fill="#A8893A"/>
<rect x="309.421" y="138.392" width="3.31579" height="2.95652" rx="1" fill="#A8893A"/>
<rect x="309.421" y="144.304" width="3.31579" height="2.95652" rx="1" fill="#444444"/>
<rect x="309.421" y="150.217" width="3.31579" height="2.95652" rx="1" fill="#444444"/>
<rect x="309.421" y="156.131" width="3.31579" height="2.95652" rx="1" fill="#A8893A"/>
<rect x="309.421" y="162.043" width="3.31579" height="2.95652" rx="1" fill="#444444"/>
<rect x="313.842" y="97" width="3.31579" height="2.95652" rx="1" fill="#444444"/>
<rect x="313.842" y="102.913" width="3.31579" height="2.95652" rx="1" fill="#A8893A"/>
<rect x="313.842" y="108.827" width="3.31579" height="2.95652" rx="1" fill="#A8893A"/>
<rect x="313.842" y="114.739" width="3.31579" height="2.95652" rx="1" fill="#A8893A"/>
<rect x="313.842" y="120.652" width="3.31579" height="2.95652" rx="1" fill="#444444"/>
<rect x="313.842" y="126.565" width="3.31579" height="2.95652" rx="1" fill="#A8893A"/>
<rect x="313.842" y="132.479" width="3.31579" height="2.95652" rx="1" fill="#444444"/>
<rect x="313.842" y="138.392" width="3.31579" height="2.95652" rx="1" fill="#444444"/>
<rect x="313.842" y="144.304" width="3.31579" height="2.95652" rx="1" fill="#A8893A"/>
<rect x="313.842" y="150.217" width="3.31579" height="2.95652" rx="1" fill="#444444"/>
<rect x="313.842" y="156.131" width="3.31579" height="2.95652" rx="1" fill="#444444"/>
<rect x="313.842" y="162.043" width="3.31579" height="2.95652" rx="1" fill="#A8893A"/>
<rect x="318.263" y="97" width="3.31579" height="2.95652" rx="1" fill="#FF9270"/>
<rect x="318.263" y="102.913" width="3.31579" height="2.95652" rx="1" fill="#444444"/>
<rect x="401.986" y="102" width="3.31579" height="2.95652" rx="1" fill="#444444"/>
<rect x="318.263" y="108.827" width="3.31579" height="2.95652" rx="1" fill="#FF9270"/>
<rect x="318.263" y="114.739" width="3.31579" height="2.95652" rx="1" fill="#A8893A"/>
<rect x="318.263" y="120.652" width="3.31579" height="2.95652" rx="1" fill="#FF9270"/>
<rect x="318.263" y="126.565" width="3.31579" height="2.95652" rx="1" fill="#444444"/>
<rect x="318.263" y="132.479" width="3.31579" height="2.95652" rx="1" fill="#FF9270"/>
<rect x="318.263" y="138.392" width="3.31579" height="2.95652" rx="1" fill="#A8893A"/>
<rect x="318.263" y="144.304" width="3.31579" height="2.95652" rx="1" fill="#FF9270"/>
<rect x="318.263" y="150.217" width="3.31579" height="2.95652" rx="1" fill="#A8893A"/>
<rect x="318.263" y="156.131" width="3.31579" height="2.95652" rx="1" fill="#444444"/>
<rect x="318.263" y="162.043" width="3.31579" height="2.95652" rx="1" fill="#444444"/>
<rect x="322.685" y="97" width="3.31579" height="2.95652" rx="1" fill="#A8893A"/>
<rect x="322.685" y="102.913" width="3.31579" height="2.95652" rx="1" fill="#FF9270"/>
<rect x="322.685" y="108.827" width="3.31579" height="2.95652" rx="1" fill="#A8893A"/>
<rect x="395.387" y="102" width="3.31579" height="2.95652" rx="1" fill="#A8893A"/>
<rect x="322.685" y="114.739" width="3.31579" height="2.95652" rx="1" fill="#A8893A"/>
<rect x="322.685" y="120.652" width="3.31579" height="2.95652" rx="1" fill="#444444"/>
<rect x="322.685" y="126.565" width="3.31579" height="2.95652" rx="1" fill="#FF9270"/>
<rect x="322.685" y="132.479" width="3.31579" height="2.95652" rx="1" fill="#A8893A"/>
<rect x="322.685" y="138.392" width="3.31579" height="2.95652" rx="1" fill="#444444"/>
<rect x="322.685" y="144.304" width="3.31579" height="2.95652" rx="1" fill="#444444"/>
<rect x="322.685" y="150.217" width="3.31579" height="2.95652" rx="1" fill="#444444"/>
<rect x="322.685" y="156.131" width="3.31579" height="2.95652" rx="1" fill="#FF9270"/>
<rect x="322.685" y="162.043" width="3.31579" height="2.95652" rx="1" fill="#A8893A"/>
<rect x="206" y="80" width="3.77041" height="3.3913" rx="1" fill="#A8893A"/>
<rect x="206" y="86.7827" width="3.77041" height="3.3913" rx="1" fill="#444444"/>
<rect x="206" y="93.5654" width="3.77041" height="3.3913" rx="1" fill="#A8893A"/>
<rect x="206" y="100.348" width="3.77041" height="3.3913" rx="1" fill="#A8893A"/>
<rect x="206" y="107.13" width="3.77041" height="3.3913" rx="1" fill="#FF9270"/>
<rect x="206" y="113.913" width="3.77041" height="3.3913" rx="1" fill="#444444"/>
<rect x="206" y="120.696" width="3.77041" height="3.3913" rx="1" fill="#FF9270"/>
<rect x="206" y="127.478" width="3.77041" height="3.3913" rx="1" fill="#A8893A"/>
<rect x="206" y="134.261" width="3.77041" height="3.3913" rx="1" fill="#FF9270"/>
<rect x="206" y="141.043" width="3.77041" height="3.3913" rx="1" fill="#A8893A"/>
<rect x="206" y="147.826" width="3.77041" height="3.3913" rx="1" fill="#FF9270"/>
<rect x="206" y="154.609" width="3.77041" height="3.3913" rx="1" fill="#FF9270"/>
<rect x="211.847" y="80" width="3.77041" height="3.3913" rx="1" fill="#A8893A"/>
<rect x="211.847" y="86.7827" width="3.77041" height="3.3913" rx="1" fill="#A8893A"/>
<rect x="211.847" y="93.5654" width="3.77041" height="3.3913" rx="1" fill="#444444"/>
<rect x="211.847" y="100.348" width="3.77041" height="3.3913" rx="1" fill="#444444"/>
<rect x="211.847" y="107.13" width="3.77041" height="3.3913" rx="1" fill="#A8893A"/>
<rect x="211.847" y="113.913" width="3.77041" height="3.3913" rx="1" fill="#A8893A"/>
<rect x="211.847" y="120.696" width="3.77041" height="3.3913" rx="1" fill="#A8893A"/>
<rect x="211.847" y="127.478" width="3.77041" height="3.3913" rx="1" fill="#A8893A"/>
<rect x="211.847" y="134.261" width="3.77041" height="3.3913" rx="1" fill="#444444"/>
<rect x="211.847" y="141.043" width="3.77041" height="3.3913" rx="1" fill="#444444"/>
<rect x="211.847" y="147.826" width="3.77041" height="3.3913" rx="1" fill="#A8893A"/>
<rect x="211.847" y="154.609" width="3.77041" height="3.3913" rx="1" fill="#444444"/>
<rect x="217.693" y="80" width="3.77041" height="3.3913" rx="1" fill="#444444"/>
<rect x="217.693" y="86.7827" width="3.77041" height="3.3913" rx="1" fill="#A8893A"/>
<rect x="217.693" y="93.5654" width="3.77041" height="3.3913" rx="1" fill="#A8893A"/>
<rect x="217.693" y="100.348" width="3.77041" height="3.3913" rx="1" fill="#A8893A"/>
<rect x="217.693" y="107.13" width="3.77041" height="3.3913" rx="1" fill="#444444"/>
<rect x="217.693" y="113.913" width="3.77041" height="3.3913" rx="1" fill="#A8893A"/>
<rect x="217.693" y="120.696" width="3.77041" height="3.3913" rx="1" fill="#444444"/>
<rect x="217.693" y="127.478" width="3.77041" height="3.3913" rx="1" fill="#444444"/>
<rect x="217.693" y="134.261" width="3.77041" height="3.3913" rx="1" fill="#A8893A"/>
<rect x="217.693" y="141.043" width="3.77041" height="3.3913" rx="1" fill="#444444"/>
<rect x="217.693" y="147.826" width="3.77041" height="3.3913" rx="1" fill="#444444"/>
<rect x="217.693" y="154.609" width="3.77041" height="3.3913" rx="1" fill="#A8893A"/>
<rect x="223.541" y="80" width="3.77041" height="3.3913" rx="1" fill="#FF9270"/>
<rect x="223.541" y="86.7827" width="3.77041" height="3.3913" rx="1" fill="#444444"/>
<rect x="223.541" y="93.5654" width="3.77041" height="3.3913" rx="1" fill="#FF9270"/>
<rect x="223.541" y="100.348" width="3.77041" height="3.3913" rx="1" fill="#A8893A"/>
<rect x="223.541" y="107.13" width="3.77041" height="3.3913" rx="1" fill="#FF9270"/>
<rect x="223.541" y="113.913" width="3.77041" height="3.3913" rx="1" fill="#444444"/>
<rect x="223.541" y="120.696" width="3.77041" height="3.3913" rx="1" fill="#FF9270"/>
<rect x="223.541" y="127.478" width="3.77041" height="3.3913" rx="1" fill="#A8893A"/>
<rect x="223.541" y="134.261" width="3.77041" height="3.3913" rx="1" fill="#FF9270"/>
<rect x="223.541" y="141.043" width="3.77041" height="3.3913" rx="1" fill="#A8893A"/>
<rect x="223.541" y="147.826" width="3.77041" height="3.3913" rx="1" fill="#444444"/>
<rect x="223.541" y="154.609" width="3.77041" height="3.3913" rx="1" fill="#444444"/>
<rect x="229.388" y="80" width="3.77041" height="3.3913" rx="1" fill="#A8893A"/>
<rect x="229.388" y="86.7827" width="3.77041" height="3.3913" rx="1" fill="#FF9270"/>
<rect x="229.388" y="93.5654" width="3.77041" height="3.3913" rx="1" fill="#A8893A"/>
<rect x="229.388" y="100.348" width="3.77041" height="3.3913" rx="1" fill="#A8893A"/>
<rect x="229.388" y="107.13" width="3.77041" height="3.3913" rx="1" fill="#444444"/>
<rect x="229.388" y="113.913" width="3.77041" height="3.3913" rx="1" fill="#FF9270"/>
<rect x="229.388" y="120.696" width="3.77041" height="3.3913" rx="1" fill="#A8893A"/>
<rect x="229.388" y="127.478" width="3.77041" height="3.3913" rx="1" fill="#444444"/>
<rect x="229.388" y="134.261" width="3.77041" height="3.3913" rx="1" fill="#444444"/>
<rect x="229.388" y="141.043" width="3.77041" height="3.3913" rx="1" fill="#444444"/>
<rect x="229.388" y="147.826" width="3.77041" height="3.3913" rx="1" fill="#FF9270"/>
<rect x="229.388" y="154.609" width="3.77041" height="3.3913" rx="1" fill="#A8893A"/>
<rect x="521" y="121" width="3" height="3" rx="1" fill="#A8893A"/>
<rect x="521" y="115" width="3" height="3" rx="1" fill="#A8893A"/>
<rect x="523" y="109" width="3" height="3" rx="1" fill="#A8893A"/>
<rect x="521" y="127" width="3" height="3" rx="1" fill="#FF9270"/>
<rect x="521" y="133" width="3" height="3" rx="1" fill="#444444"/>
<rect x="521" y="139" width="3" height="3" rx="1" fill="#FF9270"/>
<rect x="521" y="145" width="3" height="3" rx="1" fill="#A8893A"/>
<rect x="521" y="151" width="3" height="3" rx="1" fill="#FF9270"/>
<rect x="521" y="157" width="3" height="3" rx="1" fill="#A8893A"/>
<rect x="521" y="163" width="3" height="3" rx="1" fill="#FF9270"/>
<rect x="521" y="169" width="3" height="3" rx="1" fill="#FF9270"/>
<rect x="525" y="121" width="3" height="3" rx="1" fill="#444444"/>
<rect x="525" y="115" width="3" height="3" rx="1" fill="#444444"/>
<rect x="527" y="109" width="3" height="3" rx="1" fill="#444444"/>
<rect x="527" y="97" width="3" height="3" rx="1" fill="#444444"/>
<rect x="525" y="127" width="3" height="3" rx="1" fill="#A8893A"/>
<rect x="525" y="133" width="3" height="3" rx="1" fill="#A8893A"/>
<rect x="525" y="139" width="3" height="3" rx="1" fill="#A8893A"/>
<rect x="525" y="145" width="3" height="3" rx="1" fill="#A8893A"/>
<rect x="525" y="151" width="3" height="3" rx="1" fill="#444444"/>
<rect x="525" y="157" width="3" height="3" rx="1" fill="#444444"/>
<rect x="525" y="163" width="3" height="3" rx="1" fill="#A8893A"/>
<rect x="525" y="169" width="3" height="3" rx="1" fill="#444444"/>
<rect x="529" y="121" width="3" height="3" rx="1" fill="#A8893A"/>
<rect x="529" y="115" width="3" height="3" rx="1" fill="#A8893A"/>
<rect x="531" y="109" width="3" height="3" rx="1" fill="#A8893A"/>
<rect x="529" y="103" width="3" height="3" rx="1" fill="#A8893A"/>
<rect x="531" y="97" width="3" height="3" rx="1" fill="#A8893A"/>
<rect x="525" y="103" width="3" height="3" rx="1" fill="#A8893A"/>
<rect x="529" y="127" width="3" height="3" rx="1" fill="#444444"/>
<rect x="529" y="133" width="3" height="3" rx="1" fill="#A8893A"/>
<rect x="529" y="139" width="3" height="3" rx="1" fill="#444444"/>
<rect x="529" y="145" width="3" height="3" rx="1" fill="#444444"/>
<rect x="529" y="151" width="3" height="3" rx="1" fill="#A8893A"/>
<rect x="529" y="157" width="3" height="3" rx="1" fill="#444444"/>
<rect x="565.986" y="165" width="3" height="3" rx="1" fill="#444444"/>
<rect x="570.986" y="165" width="3" height="3" rx="1" fill="#A8893A"/>
<rect x="576.986" y="165" width="3" height="3" rx="1" fill="#ABA585"/>
<rect x="581.986" y="165" width="3" height="3" rx="1" fill="#A8893A"/>
<rect x="529" y="163" width="3" height="3" rx="1" fill="#444444"/>
<rect x="529" y="169" width="3" height="3" rx="1" fill="#A8893A"/>
<rect x="533" y="121" width="3" height="3" rx="1" fill="#A8893A"/>
<rect x="533" y="115" width="3" height="3" rx="1" fill="#A8893A"/>
<rect x="535" y="109" width="3" height="3" rx="1" fill="#A8893A"/>
<rect x="533" y="103" width="3" height="3" rx="1" fill="#A8893A"/>
<rect x="533" y="127" width="3" height="3" rx="1" fill="#FF9270"/>
<rect x="533" y="133" width="3" height="3" rx="1" fill="#444444"/>
<rect x="533" y="139" width="3" height="3" rx="1" fill="#FF9270"/>
<rect x="533" y="145" width="3" height="3" rx="1" fill="#A8893A"/>
<rect x="533" y="151" width="3" height="3" rx="1" fill="#FF9270"/>
<rect x="533" y="157" width="3" height="3" rx="1" fill="#A8893A"/>
<rect x="533" y="163" width="3" height="3" rx="1" fill="#444444"/>
<rect x="533" y="169" width="3" height="3" rx="1" fill="#444444"/>
<rect x="537" y="121" width="3" height="3" rx="1" fill="#A8893A"/>
<rect x="537" y="115" width="3" height="3" rx="1" fill="#A8893A"/>
<rect x="537" y="127" width="3" height="3" rx="1" fill="#444444"/>
<rect x="537" y="133" width="3" height="3" rx="1" fill="#FF9270"/>
<rect x="537" y="139" width="3" height="3" rx="1" fill="#A8893A"/>
<rect x="537" y="145" width="3" height="3" rx="1" fill="#444444"/>
<rect x="537" y="151" width="3" height="3" rx="1" fill="#444444"/>
<rect x="537" y="157" width="3" height="3" rx="1" fill="#444444"/>
<rect x="537" y="163" width="3" height="3" rx="1" fill="#FF9270"/>
<rect x="537" y="169" width="3" height="3" rx="1" fill="#A8893A"/>
<rect x="818" y="120" width="3" height="3" rx="1" fill="#A8893A"/>
<rect x="818" y="126" width="3" height="3" rx="1" fill="#FF9270"/>
<rect x="818" y="132" width="3" height="3" rx="1" fill="#444444"/>
<rect x="818" y="138" width="3" height="3" rx="1" fill="#FF9270"/>
<rect x="818" y="144" width="3" height="3" rx="1" fill="#A8893A"/>
<rect x="818" y="150" width="3" height="3" rx="1" fill="#FF9270"/>
<rect x="818" y="156" width="3" height="3" rx="1" fill="#A8893A"/>
<rect x="818" y="162" width="3" height="3" rx="1" fill="#FF9270"/>
<rect x="818" y="168" width="3" height="3" rx="1" fill="#FF9270"/>
<rect x="822" y="120" width="3" height="3" rx="1" fill="#444444"/>
<rect x="822" y="126" width="3" height="3" rx="1" fill="#A8893A"/>
<rect x="822" y="132" width="3" height="3" rx="1" fill="#A8893A"/>
<rect x="822" y="138" width="3" height="3" rx="1" fill="#A8893A"/>
<rect x="822" y="144" width="3" height="3" rx="1" fill="#A8893A"/>
<rect x="822" y="150" width="3" height="3" rx="1" fill="#444444"/>
<rect x="822" y="156" width="3" height="3" rx="1" fill="#444444"/>
<rect x="822" y="162" width="3" height="3" rx="1" fill="#A8893A"/>
<rect x="822" y="168" width="3" height="3" rx="1" fill="#444444"/>
<rect x="826" y="120" width="3" height="3" rx="1" fill="#A8893A"/>
<rect x="826" y="126" width="3" height="3" rx="1" fill="#444444"/>
<rect x="826" y="132" width="3" height="3" rx="1" fill="#A8893A"/>
<rect x="826" y="138" width="3" height="3" rx="1" fill="#444444"/>
<rect x="826" y="144" width="3" height="3" rx="1" fill="#444444"/>
<rect x="826" y="150" width="3" height="3" rx="1" fill="#A8893A"/>
<rect x="826" y="156" width="3" height="3" rx="1" fill="#444444"/>
<rect x="826" y="162" width="3" height="3" rx="1" fill="#444444"/>
<rect x="826" y="168" width="3" height="3" rx="1" fill="#A8893A"/>
<rect x="830" y="120" width="3" height="3" rx="1" fill="#A8893A"/>
<rect x="830" y="126" width="3" height="3" rx="1" fill="#FF9270"/>
<rect x="830" y="132" width="3" height="3" rx="1" fill="#444444"/>
<rect x="830" y="138" width="3" height="3" rx="1" fill="#FF9270"/>
<rect x="830" y="144" width="3" height="3" rx="1" fill="#A8893A"/>
<rect x="830" y="150" width="3" height="3" rx="1" fill="#FF9270"/>
<rect x="830" y="156" width="3" height="3" rx="1" fill="#A8893A"/>
<rect x="830" y="162" width="3" height="3" rx="1" fill="#444444"/>
<rect x="830" y="168" width="3" height="3" rx="1" fill="#444444"/>
<rect x="834" y="120" width="3" height="3" rx="1" fill="#A8893A"/>
<rect x="834" y="126" width="3" height="3" rx="1" fill="#444444"/>
<rect x="834" y="132" width="3" height="3" rx="1" fill="#FF9270"/>
<rect x="834" y="138" width="3" height="3" rx="1" fill="#A8893A"/>
<rect x="834" y="144" width="3" height="3" rx="1" fill="#444444"/>
<rect x="834" y="150" width="3" height="3" rx="1" fill="#444444"/>
<rect x="834" y="156" width="3" height="3" rx="1" fill="#444444"/>
<rect x="834" y="162" width="3" height="3" rx="1" fill="#FF9270"/>
<rect x="834" y="168" width="3" height="3" rx="1" fill="#A8893A"/>
<rect x="818" y="108" width="3" height="3" rx="1" fill="#A8893A"/>
<rect x="818" y="102" width="3" height="3" rx="1" fill="#444444"/>
<rect x="818" y="114" width="3" height="3" rx="1" fill="#FF9270"/>
<rect x="822" y="108" width="3" height="3" rx="1" fill="#444444"/>
<rect x="822" y="102" width="3" height="3" rx="1" fill="#A8893A"/>
<rect x="822" y="96" width="3" height="3" rx="1" fill="#444444"/>
<rect x="822" y="114" width="3" height="3" rx="1" fill="#444444"/>
<rect x="826" y="108" width="3" height="3" rx="1" fill="#444444"/>
<rect x="826" y="102" width="3" height="3" rx="1" fill="#444444"/>
<rect x="826" y="96" width="3" height="3" rx="1" fill="#FF9270"/>
<rect x="826" y="114" width="3" height="3" rx="1" fill="#A8893A"/>
<rect x="830" y="108" width="3" height="3" rx="1" fill="#444444"/>
<rect x="830" y="102" width="3" height="3" rx="1" fill="#A8893A"/>
<rect x="830" y="96" width="3" height="3" rx="1" fill="#A8893A"/>
<rect x="830" y="114" width="3" height="3" rx="1" fill="#444444"/>
<rect x="834" y="108" width="3" height="3" rx="1" fill="#FF9270"/>
<rect x="834" y="102" width="3" height="3" rx="1" fill="#FF9270"/>
<rect x="834" y="114" width="3" height="3" rx="1" fill="#A8893A"/>
<rect x="51" y="146" width="36" height="2" rx="1" fill="#444444"/>
<rect x="51" y="136" width="36" height="2" rx="1" fill="#A8893A"/>
<rect x="51" y="131" width="36" height="2" rx="1" fill="#444444"/>
<rect x="51" y="126" width="36" height="2" rx="1" fill="#A8893A"/>
<rect x="51" y="121" width="36" height="2" rx="1" fill="#A8893A"/>
<rect x="51" y="116" width="36" height="2" rx="1" fill="#444444"/>
<rect x="51" y="111" width="36" height="2" rx="1" fill="#A8893A"/>
<rect x="51" y="106" width="36" height="2" rx="1" fill="#ABA585"/>
<rect x="51" y="101" width="36" height="2" rx="1" fill="#A8893A"/>
<rect x="51" y="96" width="36" height="2" rx="1" fill="#444444"/>
<rect x="51" y="91" width="36" height="2" rx="1" fill="#444444"/>
<rect x="51" y="86" width="36" height="2" rx="1" fill="#A8893A"/>
<rect x="51" y="81" width="36" height="2" rx="1" fill="#ABA585"/>
<rect x="51" y="76" width="36" height="2" rx="1" fill="#A8893A"/>
<rect x="51" y="71" width="36" height="2" rx="1" fill="#444444"/>
<rect x="51" y="66" width="36" height="2" rx="1" fill="#A8893A"/>
<rect x="51" y="61" width="36" height="2" rx="1" fill="#444444"/>
<rect x="51" y="56" width="36" height="2" rx="1" fill="#A8893A"/>
<rect x="51" y="51" width="36" height="2" rx="1" fill="#ABA585"/>
<rect x="51" y="46" width="36" height="2" rx="1" fill="#444444"/>
<rect x="51" y="41" width="36" height="2" rx="1" fill="#444444"/>
<rect x="51" y="36" width="36" height="2" rx="1" fill="#A8893A"/>
<rect x="51" y="141" width="36" height="2" rx="1" fill="#444444"/>
<rect x="1220.99" y="149.214" width="32.1429" height="1.78571" rx="0.892857" fill="#444444"/>
<rect x="1220.99" y="140.286" width="32.1429" height="1.78571" rx="0.892857" fill="#A8893A"/>
<rect x="1220.99" y="135.821" width="32.1429" height="1.78571" rx="0.892857" fill="#444444"/>
<rect x="1220.99" y="131.357" width="32.1429" height="1.78571" rx="0.892857" fill="#A8893A"/>
<rect x="1220.99" y="126.893" width="32.1429" height="1.78571" rx="0.892857" fill="#A8893A"/>
<rect x="1220.99" y="122.429" width="32.1429" height="1.78571" rx="0.892857" fill="#444444"/>
<rect x="1220.99" y="117.964" width="32.1429" height="1.78571" rx="0.892857" fill="#A8893A"/>
<rect x="1220.99" y="113.5" width="32.1429" height="1.78571" rx="0.892857" fill="#ABA585"/>
<rect x="1220.99" y="109.036" width="32.1429" height="1.78571" rx="0.892857" fill="#A8893A"/>
<rect x="1220.99" y="104.571" width="32.1429" height="1.78571" rx="0.892857" fill="#444444"/>
<rect x="1220.99" y="100.107" width="32.1429" height="1.78571" rx="0.892857" fill="#444444"/>
<rect x="1220.99" y="95.6431" width="32.1429" height="1.78571" rx="0.892857" fill="#A8893A"/>
<rect x="1220.99" y="91.1787" width="32.1429" height="1.78571" rx="0.892857" fill="#ABA585"/>
<rect x="1220.99" y="86.7144" width="32.1429" height="1.78571" rx="0.892857" fill="#A8893A"/>
<rect x="1220.99" y="82.25" width="32.1429" height="1.78571" rx="0.892857" fill="#444444"/>
<rect x="1220.99" y="77.7856" width="32.1429" height="1.78571" rx="0.892857" fill="#A8893A"/>
<rect x="1220.99" y="73.3213" width="32.1429" height="1.78571" rx="0.892857" fill="#444444"/>
<rect x="1220.99" y="68.8569" width="32.1429" height="1.78571" rx="0.892857" fill="#A8893A"/>
<rect x="1220.99" y="64.3931" width="32.1429" height="1.78571" rx="0.892857" fill="#ABA585"/>
<rect x="1220.99" y="59.9287" width="32.1429" height="1.78571" rx="0.892857" fill="#444444"/>
<rect x="1220.99" y="55.4644" width="32.1429" height="1.78571" rx="0.892857" fill="#444444"/>
<rect x="1220.99" y="51" width="32.1429" height="1.78571" rx="0.892857" fill="#A8893A"/>
<rect x="1220.99" y="144.75" width="32.1429" height="1.78571" rx="0.892857" fill="#444444"/>
<rect x="331.986" y="163.768" width="22.5357" height="1.23214" rx="0.616071" fill="#444444"/>
<rect x="331.986" y="157.607" width="22.5357" height="1.23214" rx="0.616071" fill="#A8893A"/>
<rect x="331.986" y="154.527" width="22.5357" height="1.23214" rx="0.616071" fill="#444444"/>
<rect x="331.986" y="151.446" width="22.5357" height="1.23214" rx="0.616071" fill="#A8893A"/>
<rect x="331.986" y="148.366" width="22.5357" height="1.23214" rx="0.616071" fill="#A8893A"/>
<rect x="331.986" y="145.286" width="22.5357" height="1.23214" rx="0.616071" fill="#444444"/>
<rect x="331.986" y="142.206" width="22.5357" height="1.23214" rx="0.616071" fill="#A8893A"/>
<rect x="331.986" y="139.125" width="22.5357" height="1.23214" rx="0.616071" fill="#ABA585"/>
<rect x="331.986" y="136.044" width="22.5357" height="1.23214" rx="0.616071" fill="#A8893A"/>
<rect x="331.986" y="132.964" width="22.5357" height="1.23214" rx="0.616071" fill="#444444"/>
<rect x="331.986" y="129.884" width="22.5357" height="1.23214" rx="0.616071" fill="#444444"/>
<rect x="331.986" y="126.804" width="22.5357" height="1.23214" rx="0.616071" fill="#A8893A"/>
<rect x="331.986" y="123.723" width="22.5357" height="1.23214" rx="0.616071" fill="#ABA585"/>
<rect x="331.986" y="120.643" width="22.5357" height="1.23214" rx="0.616071" fill="#A8893A"/>
<rect x="331.986" y="117.562" width="22.5357" height="1.23214" rx="0.616071" fill="#444444"/>
<rect x="331.986" y="114.482" width="22.5357" height="1.23214" rx="0.616071" fill="#A8893A"/>
<rect x="331.986" y="111.402" width="22.5357" height="1.23214" rx="0.616071" fill="#444444"/>
<rect x="331.986" y="108.321" width="22.5357" height="1.23214" rx="0.616071" fill="#A8893A"/>
<rect x="331.986" y="105.241" width="22.5357" height="1.23214" rx="0.616071" fill="#ABA585"/>
<rect x="331.986" y="102.161" width="22.5357" height="1.23214" rx="0.616071" fill="#444444"/>
<rect x="331.986" y="99.0806" width="22.5357" height="1.23214" rx="0.616071" fill="#444444"/>
<rect x="331.986" y="96" width="22.5357" height="1.23214" rx="0.616071" fill="#A8893A"/>
<rect x="331.986" y="160.688" width="22.5357" height="1.23214" rx="0.616071" fill="#444444"/>
<rect x="587.986" y="169.179" width="15.0238" height="0.821428" rx="0.410714" fill="#444444"/>
<rect x="587.986" y="165.071" width="15.0238" height="0.821428" rx="0.410714" fill="#A8893A"/>
<rect x="587.986" y="163.018" width="15.0238" height="0.821428" rx="0.410714" fill="#444444"/>
<rect x="587.986" y="160.964" width="15.0238" height="0.821428" rx="0.410714" fill="#A8893A"/>
<rect x="587.986" y="158.911" width="15.0238" height="0.821428" rx="0.410714" fill="#A8893A"/>
<rect x="587.986" y="156.857" width="15.0238" height="0.821428" rx="0.410714" fill="#444444"/>
<rect x="587.986" y="154.804" width="15.0238" height="0.821428" rx="0.410714" fill="#A8893A"/>
<rect x="587.986" y="152.75" width="15.0238" height="0.821428" rx="0.410714" fill="#ABA585"/>
<rect x="587.986" y="150.696" width="15.0238" height="0.821428" rx="0.410714" fill="#A8893A"/>
<rect x="587.986" y="148.643" width="15.0238" height="0.821428" rx="0.410714" fill="#444444"/>
<rect x="587.986" y="146.589" width="15.0238" height="0.821428" rx="0.410714" fill="#444444"/>
<rect x="587.986" y="144.536" width="15.0238" height="0.821428" rx="0.410714" fill="#A8893A"/>
<rect x="587.986" y="142.482" width="15.0238" height="0.821428" rx="0.410714" fill="#ABA585"/>
<rect x="587.986" y="140.429" width="15.0238" height="0.821428" rx="0.410714" fill="#A8893A"/>
<rect x="587.986" y="138.375" width="15.0238" height="0.821428" rx="0.410714" fill="#444444"/>
<rect x="587.986" y="136.321" width="15.0238" height="0.821428" rx="0.410714" fill="#A8893A"/>
<rect x="587.986" y="134.268" width="15.0238" height="0.821428" rx="0.410714" fill="#444444"/>
<rect x="587.986" y="132.214" width="15.0238" height="0.821428" rx="0.410714" fill="#A8893A"/>
<rect x="587.986" y="130.161" width="15.0238" height="0.821428" rx="0.410714" fill="#ABA585"/>
<rect x="587.986" y="128.107" width="15.0238" height="0.821428" rx="0.410714" fill="#444444"/>
<rect x="587.986" y="126.054" width="15.0238" height="0.821428" rx="0.410714" fill="#444444"/>
<rect x="587.986" y="124" width="15.0238" height="0.821428" rx="0.410714" fill="#A8893A"/>
<rect x="587.986" y="167.125" width="15.0238" height="0.821428" rx="0.410714" fill="#444444"/>
<rect x="443.986" y="164.821" width="21.5558" height="1.17857" rx="0.589284" fill="#444444"/>
<rect x="443.986" y="158.928" width="21.5558" height="1.17857" rx="0.589284" fill="#A8893A"/>
<rect x="443.986" y="155.982" width="21.5558" height="1.17857" rx="0.589284" fill="#444444"/>
<rect x="443.986" y="153.035" width="21.5558" height="1.17857" rx="0.589284" fill="#A8893A"/>
<rect x="443.986" y="150.089" width="21.5558" height="1.17857" rx="0.589284" fill="#A8893A"/>
<rect x="443.986" y="147.143" width="21.5558" height="1.17857" rx="0.589284" fill="#444444"/>
<rect x="443.986" y="144.196" width="21.5558" height="1.17857" rx="0.589284" fill="#A8893A"/>
<rect x="443.986" y="141.25" width="21.5558" height="1.17857" rx="0.589284" fill="#ABA585"/>
<rect x="443.986" y="138.303" width="21.5558" height="1.17857" rx="0.589284" fill="#A8893A"/>
<rect x="443.986" y="135.357" width="21.5558" height="1.17857" rx="0.589284" fill="#444444"/>
<rect x="443.986" y="132.411" width="21.5558" height="1.17857" rx="0.589284" fill="#444444"/>
<rect x="443.986" y="129.464" width="21.5558" height="1.17857" rx="0.589284" fill="#A8893A"/>
<rect x="443.986" y="126.518" width="21.5558" height="1.17857" rx="0.589284" fill="#ABA585"/>
<rect x="443.986" y="123.571" width="21.5558" height="1.17857" rx="0.589284" fill="#A8893A"/>
<rect x="443.986" y="120.625" width="21.5558" height="1.17857" rx="0.589284" fill="#444444"/>
<rect x="443.986" y="117.678" width="21.5558" height="1.17857" rx="0.589284" fill="#A8893A"/>
<rect x="443.986" y="114.732" width="21.5558" height="1.17857" rx="0.589284" fill="#444444"/>
<rect x="443.986" y="111.786" width="21.5558" height="1.17857" rx="0.589284" fill="#A8893A"/>
<rect x="443.986" y="108.839" width="21.5558" height="1.17857" rx="0.589284" fill="#ABA585"/>
<rect x="443.986" y="105.893" width="21.5558" height="1.17857" rx="0.589284" fill="#444444"/>
<rect x="443.986" y="102.947" width="21.5558" height="1.17857" rx="0.589284" fill="#444444"/>
<rect x="443.986" y="100" width="21.5558" height="1.17857" rx="0.589284" fill="#A8893A"/>
<rect x="496.986" y="164" width="19" height="1" rx="0.5" fill="#A8893A"/>
<rect x="496.986" y="166" width="19" height="1" rx="0.5" fill="#444444"/>
<rect x="443.986" y="161.875" width="21.5558" height="1.17857" rx="0.589284" fill="#444444"/>
<rect x="1022" y="160" width="30" height="2" rx="1" fill="#A8893A"/>
<rect x="1022" y="150" width="30" height="2" rx="1" fill="#A8893A"/>
<rect x="1022" y="145" width="30" height="2" rx="1" fill="#444444"/>
<rect x="1022" y="140" width="30" height="2" rx="1" fill="#A8893A"/>
<rect x="1022" y="135" width="30" height="2" rx="1" fill="#A8893A"/>
<rect x="1022" y="130" width="30" height="2" rx="1" fill="#444444"/>
<rect x="1022" y="125" width="30" height="2" rx="1" fill="#A8893A"/>
<rect x="1022" y="120" width="30" height="2" rx="1" fill="#ABA585"/>
<rect x="1022" y="115" width="30" height="2" rx="1" fill="#A8893A"/>
<rect x="1022" y="110" width="30" height="2" rx="1" fill="#444444"/>
<rect x="1022" y="105" width="30" height="2" rx="1" fill="#444444"/>
<rect x="1022" y="100" width="30" height="2" rx="1" fill="#A8893A"/>
<rect x="1022" y="95" width="30" height="2" rx="1" fill="#ABA585"/>
<rect x="1022" y="90" width="30" height="2" rx="1" fill="#A8893A"/>
<rect x="1022" y="85" width="30" height="2" rx="1" fill="#444444"/>
<rect x="1022" y="80" width="30" height="2" rx="1" fill="#A8893A"/>
<rect x="1022" y="75" width="30" height="2" rx="1" fill="#444444"/>
<rect x="1022" y="70" width="30" height="2" rx="1" fill="#A8893A"/>
<rect x="1022" y="155" width="30" height="2" rx="1" fill="#444444"/>
<rect x="1301" y="143" width="30" height="2" rx="1" fill="#A8893A"/>
<rect x="1301" y="133" width="30" height="2" rx="1" fill="#A8893A"/>
<rect x="1301" y="128" width="30" height="2" rx="1" fill="#444444"/>
<rect x="1301" y="123" width="30" height="2" rx="1" fill="#A8893A"/>
<rect x="1301" y="118" width="30" height="2" rx="1" fill="#A8893A"/>
<rect x="1301" y="113" width="30" height="2" rx="1" fill="#444444"/>
<rect x="1301" y="108" width="30" height="2" rx="1" fill="#A8893A"/>
<rect x="1301" y="103" width="30" height="2" rx="1" fill="#ABA585"/>
<rect x="1301" y="98" width="30" height="2" rx="1" fill="#A8893A"/>
<rect x="1301" y="93" width="30" height="2" rx="1" fill="#444444"/>
<rect x="1301" y="88" width="30" height="2" rx="1" fill="#444444"/>
<rect x="1301" y="83" width="30" height="2" rx="1" fill="#A8893A"/>
<rect x="1301" y="78" width="30" height="2" rx="1" fill="#ABA585"/>
<rect x="1301" y="73" width="30" height="2" rx="1" fill="#A8893A"/>
<rect x="1301" y="68" width="30" height="2" rx="1" fill="#444444"/>
<rect x="1301" y="63" width="30" height="2" rx="1" fill="#A8893A"/>
<rect x="1301" y="58" width="30" height="2" rx="1" fill="#444444"/>
<rect x="1301" y="53" width="30" height="2" rx="1" fill="#A8893A"/>
<rect x="1305.01" y="48.1753" width="26" height="2" rx="1" fill="#A8893A"/>
<rect x="1311.02" y="43.3506" width="20" height="2" rx="1" fill="#A8893A"/>
<rect x="1316.02" y="38.5259" width="15" height="2" rx="1" fill="#A8893A"/>
<rect x="1322.03" y="33.7012" width="9" height="2" rx="1" fill="#A8893A"/>
<rect x="1301" y="138" width="30" height="2" rx="1" fill="#444444"/>
<rect x="986" y="160" width="30" height="2" rx="1" fill="#444444"/>
<rect x="986" y="150" width="30" height="2" rx="1" fill="#ABA585"/>
<rect x="986" y="145" width="30" height="2" rx="1" fill="#444444"/>
<rect x="986" y="140" width="30" height="2" rx="1" fill="#ABA585"/>
<rect x="986" y="135" width="30" height="2" rx="1" fill="#A8893A"/>
<rect x="986" y="130" width="30" height="2" rx="1" fill="#A8893A"/>
<rect x="986" y="125" width="30" height="2" rx="1" fill="#444444"/>
<rect x="986" y="120" width="30" height="2" rx="1" fill="#444444"/>
<rect x="986" y="115" width="30" height="2" rx="1" fill="#A8893A"/>
<rect x="986" y="110" width="30" height="2" rx="1" fill="#A8893A"/>
<rect x="986" y="105" width="30" height="2" rx="1" fill="#ABA585"/>
<rect x="986" y="100" width="30" height="2" rx="1" fill="#444444"/>
<rect x="986" y="95" width="30" height="2" rx="1" fill="#ABA585"/>
<rect x="986" y="90" width="30" height="2" rx="1" fill="#444444"/>
<rect x="986" y="85" width="30" height="2" rx="1" fill="#444444"/>
<rect x="986" y="80" width="30" height="2" rx="1" fill="#A8893A"/>
<rect x="986" y="75" width="30" height="2" rx="1" fill="#A8893A"/>
<rect x="986" y="70" width="30" height="2" rx="1" fill="#A8893A"/>
<rect x="986" y="155" width="30" height="2" rx="1" fill="#A8893A"/>
<rect x="868.986" y="167" width="19" height="1.26667" rx="0.633333" fill="#444444"/>
<rect x="868.986" y="160.667" width="19" height="1.26667" rx="0.633333" fill="#ABA585"/>
<rect x="868.986" y="157.5" width="19" height="1.26667" rx="0.633333" fill="#444444"/>
<rect x="868.986" y="154.333" width="19" height="1.26667" rx="0.633333" fill="#ABA585"/>
<rect x="868.986" y="151.167" width="19" height="1.26667" rx="0.633333" fill="#A8893A"/>
<rect x="868.986" y="148" width="19" height="1.26667" rx="0.633333" fill="#A8893A"/>
<rect x="868.986" y="144.833" width="19" height="1.26667" rx="0.633333" fill="#444444"/>
<rect x="868.986" y="141.667" width="19" height="1.26667" rx="0.633333" fill="#444444"/>
<rect x="868.986" y="138.5" width="19" height="1.26667" rx="0.633333" fill="#A8893A"/>
<rect x="868.986" y="135.333" width="19" height="1.26667" rx="0.633333" fill="#A8893A"/>
<rect x="868.986" y="132.167" width="19" height="1.26667" rx="0.633333" fill="#ABA585"/>
<rect x="868.986" y="129" width="19" height="1.26667" rx="0.633333" fill="#444444"/>
<rect x="868.986" y="125.833" width="19" height="1.26667" rx="0.633333" fill="#ABA585"/>
<rect x="868.986" y="122.667" width="19" height="1.26667" rx="0.633333" fill="#444444"/>
<rect x="868.986" y="119.5" width="19" height="1.26667" rx="0.633333" fill="#444444"/>
<rect x="868.986" y="116.333" width="19" height="1.26667" rx="0.633333" fill="#A8893A"/>
<rect x="868.986" y="113.167" width="19" height="1.26667" rx="0.633333" fill="#A8893A"/>
<rect x="868.986" y="110" width="19" height="1.26667" rx="0.633333" fill="#A8893A"/>
<rect x="868.986" y="163.833" width="19" height="1.26667" rx="0.633333" fill="#A8893A"/>
<path d="M7 78C7 75.2386 9.23858 73 12 73C14.7614 73 17 75.2386 17 78V83H7V78Z" fill="#444444"/>
<path d="M7 98C7 95.2386 9.23858 93 12 93C14.7614 93 17 95.2386 17 98V103H7V98Z" fill="#A8893A"/>
<path d="M7 118C7 115.239 9.23858 113 12 113C14.7614 113 17 115.239 17 118V123H7V118Z" fill="#444444"/>
<path d="M7 138C7 135.239 9.23858 133 12 133C14.7614 133 17 135.239 17 138V143H7V138Z" fill="#444444"/>
<path d="M27 78C27 75.2386 29.2386 73 32 73C34.7614 73 37 75.2386 37 78V83H27V78Z" fill="#A8893A"/>
<path d="M27 98C27 95.2386 29.2386 93 32 93C34.7614 93 37 95.2386 37 98V103H27V98Z" fill="#444444"/>
<path d="M27 118C27 115.239 29.2386 113 32 113C34.7614 113 37 115.239 37 118V123H27V118Z" fill="#ABA585"/>
<path d="M27 138C27 135.239 29.2386 133 32 133C34.7614 133 37 135.239 37 138V143H27V138Z" fill="#A8893A"/>
<rect x="545" y="118.001" width="1.15385" height="16" rx="0.576923" fill="#A8893A"/>
<rect x="545" y="137.001" width="1.15385" height="16" rx="0.576923" fill="#444444"/>
<rect x="545" y="156.001" width="1.15385" height="16" rx="0.576923" fill="#444444"/>
<rect x="549.615" y="118.001" width="1.15385" height="16" rx="0.576923" fill="#444444"/>
<rect x="549.615" y="137.001" width="1.15385" height="16" rx="0.576923" fill="#FF9270"/>
<rect x="305.213" y="94.1548" width="1.15385" height="20.8307" rx="0.576923" transform="rotate(-89.7204 305.213 94.1548)" fill="#FF9270"/>
<rect x="389.986" y="110.54" width="1.15385" height="20.8307" rx="0.576923" transform="rotate(-89.7204 389.986 110.54)" fill="#ABA585"/>
<rect x="305" y="91.1538" width="1.15385" height="20.8307" rx="0.576923" transform="rotate(-89.7204 305 91.1538)" fill="#A8893A"/>
<rect x="389.986" y="108.154" width="1.15385" height="20.8307" rx="0.576923" transform="rotate(-89.7204 389.986 108.154)" fill="#A8893A"/>
<rect x="305" y="88.1538" width="1.15385" height="20.8307" rx="0.576923" transform="rotate(-89.7204 305 88.1538)" fill="#444444"/>
<rect x="389.986" y="113.154" width="1.15385" height="20.8307" rx="0.576923" transform="rotate(-89.7204 389.986 113.154)" fill="#444444"/>
<rect x="549.615" y="156.001" width="1.15385" height="16" rx="0.576923" fill="#A8893A"/>
<rect x="554.23" y="118.001" width="1.15385" height="16" rx="0.576923" fill="#A8893A"/>
<rect x="554.23" y="137.001" width="1.15385" height="16" rx="0.576923" fill="#FF9270"/>
<rect x="554.23" y="156.001" width="1.15385" height="16" rx="0.576923" fill="#FF9270"/>
<rect x="558.846" y="118.001" width="1.15385" height="16" rx="0.576923" fill="#444444"/>
<rect x="558.846" y="137.001" width="1.15385" height="16" rx="0.576923" fill="#A8893A"/>
<rect x="558.846" y="156.001" width="1.15385" height="16" rx="0.576923" fill="#A8893A"/>
<rect x="549" y="106.001" width="1" height="8" rx="0.5" fill="#A8893A"/>
<rect x="554" y="106.001" width="1" height="8" rx="0.5" fill="#A8893A"/>
<rect x="1260" y="93" width="1.15385" height="16" rx="0.576923" fill="#A8893A"/>
<rect x="1260" y="112" width="1.15385" height="16" rx="0.576923" fill="#444444"/>
<rect x="1260" y="131" width="1.15385" height="16" rx="0.576923" fill="#444444"/>
<rect x="1264.62" y="93" width="1.15385" height="16" rx="0.576923" fill="#444444"/>
<rect x="1264.62" y="112" width="1.15385" height="16" rx="0.576923" fill="#FF9270"/>
<rect x="1264.62" y="131" width="1.15385" height="16" rx="0.576923" fill="#A8893A"/>
<rect x="1269.23" y="93" width="1.15385" height="16" rx="0.576923" fill="#A8893A"/>
<rect x="1269.23" y="112" width="1.15385" height="16" rx="0.576923" fill="#FF9270"/>
<rect x="1269.23" y="131" width="1.15385" height="16" rx="0.576923" fill="#FF9270"/>
<rect x="1273.85" y="93" width="1.15385" height="16" rx="0.576923" fill="#444444"/>
<rect x="1273.85" y="112" width="1.15385" height="16" rx="0.576923" fill="#A8893A"/>
<rect x="1273.85" y="131" width="1.15385" height="16" rx="0.576923" fill="#A8893A"/>
<rect x="1279" y="93" width="1.15385" height="16" rx="0.576923" fill="#A8893A"/>
<rect x="1279" y="112" width="1.15385" height="16" rx="0.576923" fill="#444444"/>
<rect x="1279" y="131" width="1.15385" height="16" rx="0.576923" fill="#444444"/>
<rect x="1283.62" y="93" width="1.15385" height="16" rx="0.576923" fill="#444444"/>
<rect x="1283.62" y="112" width="1.15385" height="16" rx="0.576923" fill="#FF9270"/>
<rect x="1283.62" y="131" width="1.15385" height="16" rx="0.576923" fill="#A8893A"/>
<rect x="1288.23" y="93" width="1.15385" height="16" rx="0.576923" fill="#A8893A"/>
<rect x="1288.23" y="112" width="1.15385" height="16" rx="0.576923" fill="#FF9270"/>
<rect x="1288.23" y="131" width="1.15385" height="16" rx="0.576923" fill="#FF9270"/>
<rect x="1292.85" y="93" width="1.15385" height="16" rx="0.576923" fill="#444444"/>
<rect x="1292.85" y="112" width="1.15385" height="16" rx="0.576923" fill="#A8893A"/>
<rect x="1292.85" y="131" width="1.15385" height="16" rx="0.576923" fill="#A8893A"/>
<rect x="799" y="116" width="4.43077" height="54" rx="1" fill="#A8893A"/>
<rect x="805.646" y="116" width="4.43077" height="54" rx="1" fill="#A8893A"/>
</svg>
